<svg xmlns="http://www.w3.org/2000/svg" width="22" height="22" viewBox="0 0 22 22"><defs><style>.a{fill:none;}.b{fill:#004b8b;}</style></defs><rect class="a" width="22" height="22"/><g transform="translate(5 5)"><path class="b" d="M6.929,6l4.886-4.888a.64.64,0,0,0,0-.9L11.788.185a.639.639,0,0,0-.9,0L6,5.08,1.117.185a.639.639,0,0,0-.9,0L.19.212a.628.628,0,0,0,0,.9L5.076,6,.19,10.888a.64.64,0,0,0,0,.9l.027.027a.639.639,0,0,0,.9,0L6,6.927l4.886,4.888a.639.639,0,0,0,.9,0l.027-.027a.64.64,0,0,0,0-.9Z"/></g></svg>