<svg xmlns="http://www.w3.org/2000/svg" width="32" height="32" viewBox="0 0 32 32"><defs><style>.a{fill:rgba(255,255,255,0.2);}.a,.b{stroke-miterlimit:10;}.b{fill:none;stroke:#fff;stroke-width:1.5px;}.c,.d{stroke:none;}.d{fill:rgba(255,255,255,0.5);}</style></defs><g class="a"><path class="c" d="M16,0A16,16,0,1,1,0,16,16,16,0,0,1,16,0Z"/><path class="d" d="M 16 1 C 11.99336051940918 1 8.226530075073242 2.560270309448242 5.393400192260742 5.393400192260742 C 2.560270309448242 8.226530075073242 1 11.99336051940918 1 16 C 1 20.00664138793945 2.560270309448242 23.77346992492676 5.393400192260742 26.60659980773926 C 8.226530075073242 29.43972969055176 11.99336051940918 31 16 31 C 20.00664138793945 31 23.77346992492676 29.43972969055176 26.60659980773926 26.60659980773926 C 29.43972969055176 23.77346992492676 31 20.00664138793945 31 16 C 31 11.99336051940918 29.43972969055176 8.226530075073242 26.60659980773926 5.393400192260742 C 23.77346992492676 2.560270309448242 20.00664138793945 1 16 1 M 16 0 C 24.83654022216797 0 32 7.163459777832031 32 16 C 32 24.83654022216797 24.83654022216797 32 16 32 C 7.163459777832031 32 0 24.83654022216797 0 16 C 0 7.163459777832031 7.163459777832031 0 16 0 Z"/></g><g transform="translate(11.05 11.45)"><path class="b" d="M0,0H14" transform="translate(0 0) rotate(45)"/><path class="b" d="M0,0H14" transform="translate(9.9 0) rotate(135)"/></g></svg>