<svg xmlns="http://www.w3.org/2000/svg" width="22" height="22" viewBox="0 0 22 22"><defs><style>.a{fill:#4a4a4a;}.b{fill:none;}</style></defs><path class="a" d="M6.652,14a.347.347,0,0,1-.353-.35V12.558A5.6,5.6,0,0,1,1.443,7.7H.349A.371.371,0,0,1,.1,7.6.359.359,0,0,1,0,7.348v-.7A.355.355,0,0,1,.1,6.4a.356.356,0,0,1,.248-.1H1.443A5.6,5.6,0,0,1,6.3,1.443V.349A.356.356,0,0,1,6.4.1.355.355,0,0,1,6.652,0h.7A.359.359,0,0,1,7.6.1a.371.371,0,0,1,.1.248V1.443A5.6,5.6,0,0,1,12.558,6.3H13.65a.347.347,0,0,1,.35.353v.7a.363.363,0,0,1-.1.252.373.373,0,0,1-.248.1H12.558A5.6,5.6,0,0,1,7.7,12.558V13.65a.373.373,0,0,1-.1.248.363.363,0,0,1-.252.1ZM2.8,7A4.2,4.2,0,1,0,7,2.8,4.2,4.2,0,0,0,2.8,7ZM4.9,7A2.1,2.1,0,1,1,7,9.1,2.1,2.1,0,0,1,4.9,7Z" transform="translate(4 4)"/><rect class="b" width="22" height="22"/></svg>