<svg xmlns="http://www.w3.org/2000/svg" width="22" height="22" viewBox="0 0 22 22"><defs><style>.a{opacity:0;}.b{fill:#c1c1c1;}</style></defs><rect class="a" width="22" height="22"/><path class="b" d="M4.125,18.333A2.521,2.521,0,0,1,1.6,15.812V3.667H.688a.688.688,0,1,1,0-1.375H15.812a.688.688,0,1,1,0,1.375H2.979V15.812a1.146,1.146,0,0,0,1.146,1.147h8.25a1.146,1.146,0,0,0,1.146-1.147V5.729a.688.688,0,1,1,1.375,0V15.812a2.521,2.521,0,0,1-2.521,2.521ZM9.4,13.063v-5.5a.688.688,0,1,1,1.375,0v5.5a.688.688,0,1,1-1.375,0Zm-3.667,0v-5.5a.688.688,0,1,1,1.375,0v5.5a.688.688,0,1,1-1.375,0ZM6.417,1.375A.688.688,0,1,1,6.417,0h3.667a.688.688,0,1,1,0,1.375Z" transform="translate(2.75 1.833)"/></svg>