<svg xmlns="http://www.w3.org/2000/svg" width="16" height="16" viewBox="0 0 16 16"><defs><style>.a{fill:#0e4a86;}.b{fill:#fff;}</style></defs><g transform="translate(-58 -454)"><circle class="a" cx="8" cy="8" r="8" transform="translate(58 454)"/><g transform="translate(2020.563 -671.356) rotate(45)"><path class="b" d="M2.932.8H0A.8.8,0,0,1-.8,0,.8.8,0,0,1,0-.8H2.932a.8.8,0,0,1,.8.8A.8.8,0,0,1,2.932.8Z" transform="translate(-582.5 2185.77)"/><path class="b" d="M0,6.07a.8.8,0,0,1-.8-.8V0A.8.8,0,0,1,0-.8.8.8,0,0,1,.8,0V5.27A.8.8,0,0,1,0,6.07Z" transform="translate(-579.568 2180.5)"/></g></g></svg>