<?xml version="1.0" encoding="UTF-8"?>
<svg width="16px" height="16px" viewBox="0 0 16 16" version="1.1" xmlns="http://www.w3.org/2000/svg" xmlns:xlink="http://www.w3.org/1999/xlink">
    <title>比心</title>
    <g id="页面-1" stroke="none" stroke-width="1" fill="none" fill-rule="evenodd">
        <g id="首页/景点" transform="translate(-230.000000, -68.000000)" fill-rule="nonzero">
            <g id="比心" transform="translate(230.000000, 68.000000)">
                <rect id="矩形" fill="#000000" opacity="0" x="0" y="0" width="16" height="16"></rect>
                <path d="M13.0578125,8.134375 C12.921875,8.05625 12.7796875,8.0046875 12.634375,7.978125 C12.5421875,7.4015625 12.203125,6.8703125 11.659375,6.5578125 L11.08125,6.225 C10.9453125,6.146875 10.803125,6.0953125 10.6578125,6.06875 C10.565625,5.4921875 10.2265625,4.9609375 9.6828125,4.6484375 L9.1046875,4.315625 L9.409375,3.7875 C9.8578125,3.0109375 9.775,2.0328125 9.20625,1.4109375 C8.7578125,0.9203125 8.1328125,0.6796875 7.490625,0.75 C6.8578125,0.81875 6.290625,1.1875 5.9734375,1.7390625 L5.85625,1.9421875 C5.228125,1.0890625 4.109375,0.7125 3.15,1.0640625 C2.49375,1.3046875 1.9828125,1.8140625 1.7484375,2.4640625 C1.5125,3.1140625 1.5765625,3.8296875 1.921875,4.4265625 L3.171875,6.5921875 L2.3078125,8.0890625 C1.3890625,9.678125 1.9375,11.721875 3.528125,12.640625 L6.9921875,14.640625 C9.2203125,15.9265625 12.0796875,15.1609375 13.3671875,12.9328125 L14.034375,11.778125 C14.76875,10.5046875 14.33125,8.8703125 13.0578125,8.134375 Z M3.0765625,3.75625 C2.928125,3.5 2.9015625,3.19375 3.0015625,2.915625 C3.1046875,2.6328125 3.3203125,2.41875 3.609375,2.3125 C3.871875,2.215625 4.16875,2.25625 4.421875,2.403125 C4.59375,2.503125 4.746875,2.6515625 4.8546875,2.8390625 L5.0953125,3.2578125 L3.940625,5.2578125 L3.0765625,3.75625 L3.0765625,3.75625 Z M12.2125,12.265625 C11.29375,13.8578125 9.25,14.4046875 7.659375,13.4859375 L4.1953125,11.4859375 C3.240625,10.934375 2.9125,9.709375 3.4625,8.753125 L3.95625,7.8984375 L3.9578125,7.896875 L6.290625,3.8546875 C6.3125,3.815625 6.31875,3.771875 6.3328125,3.73125 C6.375,3.6890625 6.4140625,3.6421875 6.44375,3.5890625 L7.1296875,2.4015625 C7.2375,2.215625 7.421875,2.0953125 7.6359375,2.071875 C7.7625,2.0578125 8.0078125,2.0703125 8.2234375,2.30625 C8.4015625,2.5015625 8.415625,2.8421875 8.25625,3.1171875 L7.284375,4.8 L6.284375,6.5328125 C6.1,6.8515625 6.209375,7.259375 6.528125,7.44375 C6.846875,7.628125 7.2546875,7.51875 7.4390625,7.2 L8.4390625,5.46875 L9.0171875,5.8015625 C9.3359375,5.9859375 9.4453125,6.39375 9.2609375,6.7125 L9.2609375,6.7140625 L8.421875,8.165625 C8.2375,8.484375 8.346875,8.8921875 8.665625,9.0765625 C8.984375,9.2609375 9.3921875,9.1515625 9.5765625,8.8328125 L10.415625,7.3796875 L10.9921875,7.7125 C11.3109375,7.896875 11.4203125,8.3046875 11.2359375,8.6234375 C11.2359375,8.625 11.234375,8.625 11.234375,8.6265625 L11.234375,8.628125 L10.3984375,10.0765625 C10.2140625,10.3953125 10.3234375,10.803125 10.6421875,10.9875 C10.9609375,11.171875 11.36875,11.0625 11.553125,10.74375 L12.3921875,9.290625 C13.028125,9.6578125 13.246875,10.475 12.8796875,11.1109375 L12.2125,12.265625 Z" id="形状" fill="#CDE1F5"></path>
            </g>
        </g>
    </g>
</svg>