<svg xmlns="http://www.w3.org/2000/svg" width="180" height="22" viewBox="0 0 180 22"><defs><style>.a{fill:#ff5b00;}.b{fill:#999;}.c{fill:#004b8b;font-size:16px;font-family:PingFangSC-Heavy, PingFang SC;font-weight:800;}</style></defs><g transform="translate(-16 -63)"><path class="a" d="M1725,1635.14l3.034-9.22,2.164.72-2.794,8.5Zm-42,0,1.687-19.807h15.364v2.3H1686.71l-1.415,17.51Zm6.18,0,1.683-12.4h-3.838v-2.3h4.149l.318-2.34h2.3l-.318,2.34h4.233a2.136,2.136,0,0,1,2.126,2.141v12.542h-3.918v-2.3h1.637v-10.088h-4.389l-1.683,12.4Zm-29.181,0,3.034-9.22,2.164.721-2.794,8.5Zm43,0v-2.3h8.449v-1.683h-5.214v-2.3h5.214v-1.682h-4.933l-.643,2.858h-2.325l1.342-5.971h2.326l-.183.815h4.416v-1.162h-6.1v-8.385h12.337a2.136,2.136,0,0,1,2.126,2.141v6.244h-6.081v1.162h6.246v2.3h-6.246v1.682h5.212v2.3h-5.212v1.683h8.447v2.3Zm4.63-13.715h9.9v-.747h-9.9Zm0-3.044h9.9v-.747h-9.9Zm31.693,16.751v-2.3h1.637v-13.568H1730.3v-2.3h14.831v2.3h-1.9v15.865Zm-65.864-.011v-2.3H1675V1628h-2.412v-2.3h2.972l1.108-2.385h-3.551v-2.3h3.8a2.112,2.112,0,0,1,1.793.992,2.141,2.141,0,0,1,.131,2.056l-.759,1.634h1.872v2.3h-2.669v7.116Zm-5.007,0v-2.3h1.621l-.033-9.4h-1.5l-1.933,11.7h-2.315l2.634-15.93h-2.135l.184.58h-2.383l-1.507-4.731h2.387l1.254,3.946v-2.092h2.294v-1.856h2.281v1.856h2.767v2.122l1.373-3.978h1.474V1615h2.365v1.89h2.517v2.3h-5.377l-.56,1.624h-2.414l.561-1.624h-2.768l-.319,1.931h1.276a2.137,2.137,0,0,1,2.126,2.133l.042,11.866Zm64.037-6.241v-8.3h5.256a2.136,2.136,0,0,1,2.126,2.14v6.155Zm2.281-2.3h2.821v-3.7h-2.821Zm-7.668-1.852-1.507-4.732h2.387l1.5,4.732Zm-65,0-1.507-4.73h2.386l1.5,4.73Zm65.491-4.957-1.507-4.731h2.387l1.5,4.731Z" transform="translate(-1644 -1551)"/><rect class="b" width="1" height="16" transform="translate(108 66)"/><text class="c" transform="translate(156 80)"><tspan x="-40" y="0">文旅元宇宙</tspan></text></g></svg>