<svg xmlns="http://www.w3.org/2000/svg" width="30" height="30" viewBox="0 0 30 30"><defs><style>.a{opacity:0.2;}.b{fill:#ff5b00;stroke:#ff5b00;stroke-width:1.5px;}</style></defs><g transform="translate(-339 -83)"><rect class="a" width="30" height="30" rx="15" transform="translate(339 83)"/><g transform="translate(345.25 89.25)"><path class="b" d="M279.5,111.1c0-1.462.009-2.925-.006-4.386a.719.719,0,0,1,.571-.791,4.579,4.579,0,0,0,3.017-3.265,14.173,14.173,0,0,1,.538-1.626,1.573,1.573,0,0,1,1.978-.947,1.53,1.53,0,0,1,1.186,1.611c.009,1.085,0,2.171,0,3.256,0,.594.107.717.724.723,1.24.013,2.482.041,3.72-.006a1.451,1.451,0,0,1,1.627,1.874c-.333,1.449-.752,2.879-1.163,4.31-.252.882-.549,1.753-.839,2.624a2.17,2.17,0,0,1-2.31,1.662h-8.13c-.873,0-.916-.041-.916-.881q0-2.079,0-4.159Z" transform="translate(-275.006 -100.026)"/><path class="b" d="M89.436,113.864c0,1.352,0,2.7,0,4.056,0,.665-.126.783-.777.785-.187,0-.374,0-.561,0a1,1,0,0,1-1.13-1.142c-.008-1.409,0-2.819,0-4.229,0-1.036,0-2.071,0-3.107a1.074,1.074,0,0,1,1.214-1.219c1.256,0,1.256,0,1.256,1.232Q89.438,112.05,89.436,113.864Z" transform="translate(-86.961 -102.592)"/></g></g></svg>