<svg xmlns="http://www.w3.org/2000/svg" width="20" height="20" viewBox="0 0 20 20"><defs><style>.a{fill:none;}.b,.c{fill:#fff;}.b{stroke:#fff;stroke-width:0.1px;}</style></defs><g transform="translate(-253 -495)"><rect class="a" width="20" height="20" transform="translate(253 495)"/><g transform="translate(157.492 437.569)"><path class="b" d="M108.46,74.615c-.757,0-4.228-.027-6.762-.048l-2.214-.017a.986.986,0,0,1-.975-.983V66.4a.983.983,0,0,1,.983-.983l1.927,0c.048,0,1.326.044,1.911-1.763.632-1.951.839-2.472.889-2.589a1.283,1.283,0,0,1,.828-.77,2.2,2.2,0,0,1,1.937.69c1.339.965.483,3.372.474,3.4-.052.142-.173.587-.334,1.223h3.7l.044.008a1.686,1.686,0,0,1,1.088.735,1.535,1.535,0,0,1,.072,1.319c-.385,1.124-1.647,5.335-1.755,5.7a1.712,1.712,0,0,1-1.816,1.253ZM99.49,66.4v7.173l2.214.016c2.533.02,6,.047,6.755.047.694,0,.83-.378.852-.472l0-.038.009-.017c.056-.186,1.368-4.572,1.775-5.759a.621.621,0,0,0,.011-.5.68.68,0,0,0-.388-.26H106.7a.655.655,0,0,1-.635-.813c.16-.642.37-1.463.467-1.728.169-.463.45-1.861-.133-2.269l-.035-.027c-.656-.553-.967-.53-1.047-.509a.3.3,0,0,0-.179.169l-.01.035-.011.015c0,.01-.174.4-.855,2.5-.792,2.443-2.648,2.451-2.895,2.44Z" transform="translate(0 0)"/><path class="c" d="M245.453,500.787h.983V506.4h-.983Z" transform="translate(-144.595 -433.494)"/></g></g></svg>