<svg xmlns="http://www.w3.org/2000/svg" width="24" height="24" viewBox="0 0 24 24"><defs><style>.a{fill:none;}.b{fill:#004b8b;}</style></defs><rect class="a" width="24" height="24"/><g transform="translate(3 4)"><path class="b" d="M9.123,15.42,5.152,12.1H2.2A2.208,2.208,0,0,1,0,9.887V6.131A2.208,2.208,0,0,1,2.2,3.916H5.155l4-3.34a2.459,2.459,0,0,1,4.03,1.912V13.5a2.482,2.482,0,0,1-1.425,2.263,2.439,2.439,0,0,1-2.634-.339ZM1.537,6.131V9.887a.664.664,0,0,0,.66.666H5.428a.748.748,0,0,1,.49.179l4.184,3.5a.922.922,0,0,0,.6.223.949.949,0,0,0,.4-.094.935.935,0,0,0,.54-.861V2.486a.912.912,0,0,0-.53-.843.936.936,0,0,0-.4-.092.906.906,0,0,0-.584.218L5.921,5.287a.764.764,0,0,1-.49.18H2.2v0A.664.664,0,0,0,1.537,6.131ZM16.7,13.707l-1.892-1.1a.778.778,0,0,1-.282-1.058.766.766,0,0,1,1.049-.283l1.893,1.1a.778.778,0,0,1,.281,1.057.767.767,0,0,1-.665.388A.758.758,0,0,1,16.7,13.707ZM15.045,8.773a.774.774,0,0,1,0-1.549h2.186a.774.774,0,0,1,0,1.549Zm-.518-4.322a.779.779,0,0,1,.282-1.058l1.892-1.1a.766.766,0,0,1,1.049.283.779.779,0,0,1-.281,1.058l-1.893,1.1a.751.751,0,0,1-.384.1A.766.766,0,0,1,14.527,4.451Z"/></g></svg>