<svg xmlns="http://www.w3.org/2000/svg" xmlns:xlink="http://www.w3.org/1999/xlink" width="260" height="260" viewBox="0 0 260 260"><defs><style>.a,.l{fill:none;}.b{fill:#ededf1;opacity:0.36;}.c{opacity:0.25;}.d,.j,.m{fill:url(#a);}.e{opacity:0.19;}.f,.j{opacity:0.4;}.g{opacity:0.24;}.h{fill:#e7eaf0;}.i{fill:#a2abb9;}.j,.m{stroke:rgba(0,0,0,0);stroke-miterlimit:10;}.k{fill:#d8d9db;}.l{stroke:#a2abb9;}</style><linearGradient id="a" x1="0.63" y1="1" x2="0.616" y2="0.067" gradientUnits="objectBoundingBox"><stop offset="0" stop-color="#a2abb9"/><stop offset="1" stop-color="#dce0e7"/></linearGradient></defs><g transform="translate(-58 -234)"><rect class="a" width="260" height="260" transform="translate(58 234)"/><path class="b" d="M15.429,51.752H5.189A5.182,5.182,0,0,0,0,56.941v.692a5.182,5.182,0,0,0,5.189,5.189H15.5a5.182,5.182,0,0,0,5.189-5.189v-.692a5.241,5.241,0,0,0-5.258-5.189Zm199.12,60.884H195.383A76.65,76.65,0,0,0,67.457,29.266H46.7a5.182,5.182,0,0,0-5.189,5.189v.692A5.182,5.182,0,0,0,46.7,40.336h33.14A5.433,5.433,0,0,1,85.307,45.8v.692a5.431,5.431,0,0,1-4.29,5.327H33.832a5.433,5.433,0,0,0-5.466,5.466v.692a5.433,5.433,0,0,0,5.466,5.466h18.4A74.916,74.916,0,0,0,51.129,76.59a76.815,76.815,0,0,0,105.787,70.778,4.044,4.044,0,0,0,1.315.138h40.059a5.182,5.182,0,0,0,5.189-5.189v-.692a5.182,5.182,0,0,0-5.189-5.189h-33.14a5.433,5.433,0,0,1-5.466-5.466v-.692a5.853,5.853,0,0,1,5.743-5.673h49.123a5.8,5.8,0,0,0,5.535-5.812V118.1a5.582,5.582,0,0,0-5.535-5.466Zm36.254.553H238.418a5.182,5.182,0,0,0-5.189,5.189v.692a5.182,5.182,0,0,0,5.189,5.189H250.8a5.182,5.182,0,0,0,5.189-5.189v-.692A5.139,5.139,0,0,0,250.8,113.19Z" transform="translate(59.628 282.309)"/><g class="c" transform="translate(236.773 348.373)"><path class="d" d="M701.056,139.757l-.674-.046-.642-.107-.616-.168-.591-.225-.57-.284-.531-.329-.494-.378-.46-.425-.419-.467-.368-.5-.32-.536-.274-.575-.217-.595-.158-.618-.1-.646-.035-.675.035-.674.1-.646.158-.618.217-.595.274-.575.32-.536.368-.5.419-.467.46-.425.494-.378.531-.329.57-.284.591-.225.616-.168.642-.107.674-.046.825.053.8.156.784.26-.018-.468.034-.7.11-.67.189-.651.263-.623.33-.585.4-.545.46-.5.517-.44.58-.388.623-.314.639-.233.659-.156.672-.077h.67l.674.077.657.156.639.233.623.314.58.388.518.44.46.5.4.545.33.585.263.623.189.651.112.67.033.7-.048.761-.143.738-.238.724.463-.255.478-.209.5-.163.511-.118.518-.071.527-.025.8.064.754.159.713.256.675.347.616.421.559.5.491.565.414.618.338.68.248.716.153.756.054.8-.054.8-.153.754-.248.716-.338.68-.414.618-.491.565-.559.5-.615.421-.677.345-.713.256-.754.159-.8.064Z" transform="translate(-694.59 -120.74)"/></g><g class="c" transform="translate(147.098 315.489)"><path class="d" d="M158.166,210.02l-.6-.043-.568-.118-.539-.191-.509-.263-.465-.319-.422-.379-.373-.43-.312-.475-.258-.521-.187-.549-.117-.58-.041-.616.041-.616.117-.58.187-.549.258-.522.312-.473.373-.43.422-.379.465-.32.509-.261.539-.192.568-.117.6-.043.559.036.542.105.531.177-.013-.319.02-.475.074-.455.126-.444.176-.424.223-.4.269-.373.31-.338.352-.3.394-.264.422-.214.434-.159.448-.107.457-.053h.455l.457.053.448.107.434.159.422.214.394.264.35.3.312.338.269.373.223.4.176.424.126.444.074.455.02.475-.033.517-.1.5-.161.494.473-.248.5-.179.519-.108.534-.038.542.049.511.113.481.176.457.238.416.287.378.34.332.384.279.421.228.462.168.486.1.511.038.544-.038.544-.1.512-.168.486-.228.462-.279.421-.332.384-.378.338-.416.287-.457.238-.481.177-.511.113-.542.048Z" transform="translate(-153.77 -197.05)"/></g><g transform="translate(180.288 339.059)"><path class="d" d="M468.487,307.07h-24.2l-.4-.04-.363-.112-.334-.184-.293-.245-.237-.3-.184-.352-.106-.384-.028-.376.046-.379.121-.363.188-.329.26-.3,8.234-7.685.267-.209.284-.152.3-.1.315-.051h.314l.315.051.3.1.282.152.267.209,4,3.73,5.947-7.489.287-.287.338-.212.375-.133.4-.045.4.045.376.133.338.212.287.287,5.628,7.088,1.593-1.481.246-.191.26-.142.279-.094.29-.046h.288l.291.046.278.094.261.142.246.191,6.553,6.093.242.276.173.3.112.336.045.349-.027.349-.1.354-.17.326-.218.273-.272.226-.309.17-.333.1-.366.039Z" transform="translate(-442.35 -291.59)"/></g><g transform="translate(148.966 343.453)"><path class="d" d="M306.955,383.1l-.948-.061-.869-.12-.8-.173-.736-.225-.961-.389-.854-.447-.757-.5-.71-.573-.618-.593-.532-.613-.485-.654-.4-.631-.324-.61-.281-.634-.205-.559-.136-.491-.044-.215-.156-.912-.406-2.354-.609-3.494-.766-4.332-.871-4.864-.932-5.094-.943-5.02-.907-4.644-.823-3.966-.692-2.982-.166-.511-.205-.45-.242-.4-.279-.347-.435-.412-.481-.347-.532-.283-.564-.223-.586-.176-.609-.125-.927-.113-.9-.036-.881.021-.767.059-1.225.166-.559.11-.614.084-.587-.021-.568-.125-.539-.22-.483-.3-.435-.388-.363-.453-.279-.516-.2-.59-.085-.614.023-.587.125-.568.218-.539.3-.483.386-.435.453-.363.518-.279.588-.2,1.12-.225,1.308-.179,1.359-.1,1.465-.011.987.051,1,.105,1.012.161,1,.222.979.292.964.361.93.437.887.522.848.608.59.508.555.565.524.626.488.692.426.718.379.792.335.874.289.961.335,1.387.411,1.828.879,4.24h50.2l.936.033.925.12.913.207.59.21.5.243.414.271.343.3.279.329.248.421.168.463.09.516,0,.58-.09.657-.2.747-6.177,18.96-.4,1.078-.465,1.05-.3.573-.35.542-.4.511-.407.412-.457.345-.508.281-.595.21-.611.122-.631.034h-38.7l.235,1.365.089.237.166.32.224.319.327.338.253.2.312.186.378.171.394.123.475.087.568.046,2.259.03,3.43.016,4.268.007h4.781l4.963-.008,4.815-.01,4.337-.011,3.534-.012,2.4-.008.933,0h.015l.614.059.563.156.521.251.473.335.4.4.335.473.25.522.154.563.057.616-.056.614-.151.565-.248.522-.333.475-.4.4-.471.338-.521.253-.562.158-.614.062-1.053,0-2.285.008-3.253.012-3.966.012-4.414.01-4.6.008-4.536,0-3.844,0-3.378-.008-2.714-.018Z" transform="translate(-276.68 -327.77)"/></g><g class="e" transform="matrix(0.966, 0.259, -0.259, 0.966, 132.818, 367.391)"><path class="d" d="M2.748,49.355l-.158-.706-.4-1.934-.551-2.888L1.04,40.262.759,38.326.5,36.292.286,34.24.122,32.194l-.1-2.031L0,28.241.036,26.97l.081-1.176.122-1.085.186-1.077.236-.94.281-.816.272-.6.3-.5.331-.42.359-.345.518-.376.5-.289.481-.211L4.171,19l.651-.1h.634l.621.1.609.176.593.245.582.314.826.559.774.645.718.7.635.7.579.712.464.626.673,1,.237.393-.178-.639-.453-1.742-.6-2.585-.309-1.5-.308-1.669-.275-1.714-.234-1.783-.173-1.8-.1-1.767L10.126,8.7l.031-1.123L10.232,6.5l.136-1.065.2-.97.248-.884.244-.649.281-.579.317-.517.353-.459.407-.411.456-.34.507-.275.567-.208.593-.117L15.107,0l.559.055.551.137L16.746.4l.525.276.526.348.528.428.645.626.64.726.639.838.587.874.575.943.56,1.015.777,1.561.726,1.625.67,1.645.6,1.606.55,1.586.467,1.444.748,2.52.461,1.723.158.638-.072-.637-.126-1.694-.042-1.1,0-1.314.047-1.363.12-1.452.126-.973.173-.96.219-.949.276-.931.334-.871.392-.817.345-.584.386-.531.425-.479.467-.431.507-.373.562-.308.62-.244.685-.18.553-.048.554.05.564.151.582.262.535.326.553.412.568.507.587.612.715.851.728.98.742,1.121L39.935,11l.69,1.23.685,1.318.969,2.011.927,2.078.874,2.1.8,2.036.748,2,.649,1.819,1.063,3.164.678,2.156.239.8Z"/></g><g class="f" transform="translate(229.801 388.778)"><path class="d" d="M792.726,619.211l.825-.486.639-.458.486-.434.435-.485.329-.455.233-.432.265-.675.156-.618.212-1.137.089-.34.126-.3.163-.269.21-.228.3-.2.407-.176.959-.322.831-.306.774-.34.644-.365.389-.284.337-.317.288-.353.237-.389.192-.455.146-.532.227.879.268.8.563,1.518.228.749.15.764.043.517-.018.552-.084.591-.149.58-.246.651-.357.733-.3.613-.228.608-.166.606-.173.923-.1.915-.112,1.8-.077.879-.131.843-.135.547-.189.529-.241.514-.3.481-.389.47-.49.462-.549.4-.585.332-.619.266-.644.21-.654.159-.662.11-.992.092-.938.018-.905-.038-.762-.069-1.173-.176-.442-.092-.176-.376-.388-1.009-.2-.662-.187-.79-.128-.826-.054-.885.021-.595.077-.593.138-.6.2-.573.286-.557.373-.542.444-.485.56-.458Z" transform="translate(-789.93 -608.85)"/></g><g class="g" transform="translate(243.746 402.177)"><path class="d" d="M861.408,679.493l.654-.053.531-.09.429-.12.414-.168.338-.182.274-.2.365-.335.281-.333.473-.637.238-.26.268-.186.2-.077.245-.036.3.013.908.115.764.057.49-.007.44-.061.4-.112.366-.177.35-.265.337-.365-.148.759-.08.7-.066.692-.1.659-.105.424-.166.424-.228.424-.284.388-.4.409-.541.434-.434.35-.376.373-.324.4-.43.634-.378.647-.363.647-.373.609-.271.384-.3.35-.337.315-.373.266-.442.22-.522.171-.55.09-.55.018-.554-.054-.813-.179-.771-.268-.726-.332-.614-.337-.932-.606-.347-.266.01-.381.029-.394.077-.56.122-.591.2-.657.274-.642.375-.618.306-.373.363-.329.426-.289.465-.215.547-.148Z" transform="translate(-857.57 -676.02)"/></g><path class="h" d="M51.468,29.815a78.076,78.076,0,0,1-21.384-1.669C14.026,24.829,1.61,18.034.421,12.267L0,12.355s.123-.1.386-.278a4.11,4.11,0,0,1,.033-1.555C1.389,6.085,9.887,3.844,21.3,4.383,37.963.6,66.955-2.286,114.046,2.523c90.288,9.215,17.245,22.145,17.245,22.145S117.131,40.076,90.73,40.079C79.724,40.079,66.592,37.4,51.468,29.815Z" transform="translate(111.375 406.333)"/><g transform="translate(174.605 402.177)"><path class="i" d="M444.117,690.912l-.054.782-.149.734-.243.7-.332.66-.406.6-.48.547-.547.48-.6.406-.66.332-.7.243-.734.149-.782.054-.78-.054-.734-.149-.7-.243-.66-.332-.6-.406-.547-.48-.481-.547-.4-.6-.332-.66-.243-.7-.149-.734-.054-.782.054-.78.149-.734.243-.7.332-.66.4-.6.481-.547.547-.481.6-.4.66-.332.7-.243.734-.149.78-.054.782.054.734.149.7.243.66.332.6.4.547.481.48.547.406.6.332.66.243.7.149.734Z" transform="translate(-432.75 -685.23)"/></g><g transform="translate(202.815 402.177)"><path class="i" d="M615.837,690.912l-.054.782-.15.734-.243.7-.332.66-.406.6-.481.547-.545.48-.6.406-.659.332-.7.243-.736.149-.78.054-.78-.054-.734-.149-.7-.243-.66-.332-.6-.406-.547-.48-.481-.547-.4-.6-.332-.66-.243-.7-.149-.734-.054-.782.054-.78.149-.734.243-.7.332-.66.4-.6.481-.547.547-.481.6-.4.66-.332.7-.243.734-.149.78-.054.78.054.736.149.7.243.659.332.6.4.545.481.481.547.406.6.332.66.243.7.15.734Z" transform="translate(-604.47 -685.23)"/></g><path class="j" d="M87.194,419.266s-.323,2.647.567,3.86c.321.429,2.108,1.323,2.251,3.467.108,2.11-.756,6.006-6.327,6.223-5.146.214-11.83-1.537-9.936-9.221,1.216-4,5-3.181,4.611-9.974-.068-4.646,2.287-9.435,3.9-9.221,1.465.18,1.573,2.467,2.609,4.325C85.545,410.009,87.439,411.582,87.194,419.266Z" transform="translate(67.833 -9.718)"/><path class="k" d="M101.117,494.109c0,.5.928.643.928-.357-.036-.968-.068-3.824-.214-5.323-.036-.429-.285-1.359-.25-1.609.106-.567.856-2.4,1.036-2.966a24.373,24.373,0,0,0,.822-8.079c-.25-3.716-.5-3.716-.894-3.681s0,2.18.07,3.539a23.533,23.533,0,0,1-1.287,9.794c-.07.189-.5.822-1.038-.214s-3.11-4.682-1.643-8.185c.465-1.074-.215-.93-.756.106a5.609,5.609,0,0,0-.5,3.181,18.068,18.068,0,0,0,2.359,5.754,7.029,7.029,0,0,1,1.036,1.786A61.683,61.683,0,0,1,101.117,494.109Z" transform="translate(48.436 -64.614)"/><g transform="translate(4949.269 8200.801)"><path class="l" d="M947.28,649.837l-2.239,1.293-2.133,1.118-2.032.956-1.935.8-1.844.657-1.76.522-1.68.394-1.606.276-1.536.162-1.471.054-1.412-.049-1.355-.148-.706-.167-.62-.225-.545-.276-.478-.327-.45-.4-.379-.422-.313-.446-.251-.476-.2-.513-.134-.511-.071-.515-.011-.522.053-.518.114-.5.176-.478.245-.464L923,648.7l.361-.374.435-.338.519-.3.737-.308.7-.213.667-.127.637-.044.616.033.618.111.586.186.556.26.53.336.509.413.456.467.427.536.4.615.366.7.335.787.324,1.011.243,1.074.157,1.142.069,1.154L933.231,657l-.1,1.2-.187,1.183-.273,1.156-.359,1.132-.327.824-.372.784-.419.744-.466.708" transform="translate(-5693.436 -8535.698)"/><path class="m" d="M834,1145.635l-.528-.41-.5-.271-.469-.151-.453-.044-.444.056-.447.162-.453.276-.469.408-.489.563-.511.749-.267.522-.243.552-.488,1.086-.287.494-.335.42-.259.232-.3.185-.354.139,1.36.088,1.159-.023.98-.118.828-.2.693-.267.58-.328.48-.385.393-.439.314-.5.242-.568.17-.645.09-.738Z" transform="translate(-5601.926 -9010.5)"/><path class="l" d="M923.078,1121.06l-.127.386-.256.457-.422.543-.637.65-.912.773-1.248.919-1.656,1.083" transform="translate(-5689.312 -8987.893)"/><path class="m" d="M2272.5,823.346l-.5-.45-.477-.31-.459-.186-.448-.081-.447.023-.455.125-.47.239-.493.371-.524.524-.556.706-.3.5-.277.532-.553,1.046-.316.469-.36.394-.271.211-.313.16-.36.111,1.351.2,1.156.068.986-.04.838-.134.709-.211.6-.283.5-.346.42-.408.344-.475.278-.547.208-.631.135-.728Z" transform="translate(-6981.335 -8702.932)"/><path class="l" d="M2288.064,647.99l-1.722,1.36-1.586,1.137-1.458.933-1.343.75-1.237.585-1.138.438-1.05.3" transform="translate(-6994.388 -8536.643)"/></g></g></svg>