<svg xmlns="http://www.w3.org/2000/svg" xmlns:xlink="http://www.w3.org/1999/xlink" width="260" height="260" viewBox="0 0 260 260"><defs><style>.a{fill:#ededf1;opacity:0.36;}.b,.h,.i{stroke:rgba(0,0,0,0);stroke-miterlimit:10;}.b,.d,.h,.i{fill:url(#a);}.c{opacity:0.19;}.e,.h{opacity:0.4;}.f{opacity:0.24;}.g{fill:#e7eaf0;}.i{opacity:0.18;}.j{fill:#d8d9db;}.k,.m{fill:none;}.l{fill:#cdd2db;}.m{stroke:#a7b0bd;}</style><linearGradient id="a" x1="0.63" y1="1" x2="0.616" y2="0.067" gradientUnits="objectBoundingBox"><stop offset="0" stop-color="#a2abb9"/><stop offset="1" stop-color="#dce0e7"/></linearGradient></defs><g transform="translate(-58 -234)"><path class="a" d="M15.429,51.752H5.189A5.182,5.182,0,0,0,0,56.941v.692a5.182,5.182,0,0,0,5.189,5.189H15.5a5.182,5.182,0,0,0,5.189-5.189v-.692a5.241,5.241,0,0,0-5.258-5.189Zm199.12,60.884H195.383A76.65,76.65,0,0,0,67.457,29.266H46.7a5.182,5.182,0,0,0-5.189,5.189v.692A5.182,5.182,0,0,0,46.7,40.336h33.14A5.433,5.433,0,0,1,85.307,45.8v.692a5.431,5.431,0,0,1-4.29,5.327H33.832a5.433,5.433,0,0,0-5.466,5.466v.692a5.433,5.433,0,0,0,5.466,5.466h18.4A74.916,74.916,0,0,0,51.129,76.59a76.815,76.815,0,0,0,105.787,70.778,4.044,4.044,0,0,0,1.315.138h40.059a5.182,5.182,0,0,0,5.189-5.189v-.692a5.182,5.182,0,0,0-5.189-5.189h-33.14a5.433,5.433,0,0,1-5.466-5.466v-.692a5.853,5.853,0,0,1,5.743-5.673h49.123a5.8,5.8,0,0,0,5.535-5.812V118.1a5.582,5.582,0,0,0-5.535-5.466Zm36.254.553H238.418a5.182,5.182,0,0,0-5.189,5.189v.692a5.182,5.182,0,0,0,5.189,5.189H250.8a5.182,5.182,0,0,0,5.189-5.189v-.692A5.139,5.139,0,0,0,250.8,113.19Z" transform="translate(59.628 282.309)"/><path class="b" d="M827.443,333.3l-.559.583-.592.55-.835.7-.867.656-.9.614-.777.471-.8.425-.826.378-.943.352-.973.262-.055.138-.277.545-.386.553-.509.567-.649.583-.815.6-.852.539-.891.48-1.072.508-1.094.45-1.117.394-.147.013-.134-.041-.109-.087-.069-.13-.015-.147.041-.134.087-.109.13-.069h0l1.08-.383,1.058-.437,1.036-.492.97-.531.814-.521.676-.511.484-.431.393-.417.312-.4.24-.392-.527.028-.529-.025-.555-.1-.449-.163-.269-.152-.222-.178-.181-.2-.162-.271-.106-.294-.052-.325.006-.33.062-.34.122-.355.169-.327.212-.291.258-.263.3-.219.33-.152.363-.085.333,0,.316.06.308.125.337.221.294.265.255.311.031.049.224.492.146.515.066.531-.016.54.726-.219.709-.269.774-.355.8-.428.824-.5.8-.548.8-.609.808-.677.765-.73.621-.686.495-.646.443-.689.341-.629.25-.576.208-.6.141-.522.084-.453.074-.71,0-.562-.043-.509-.055-.331-.077-.309-.019-.146.037-.135.084-.112.127-.074.146-.019.135.037.112.084.075.127.1.377.065.383.05.58v.636l-.081.8-.152.732-.212.707-.272.687-.336.667-.437.718-.489.68Zm-10.82,2.233-.174.228-.134.255-.108.339-.025.309.05.291.127.244.18.177.269.153.315.1.4.069.637.015.634-.065.056-.483-.029-.48-.115-.467-.2-.445-.216-.252-.271-.228-.2-.113-.219-.06-.241-.009-.28.079-.243.138Z" transform="translate(-581.379 4.061)"/><g class="c" transform="matrix(0.966, 0.259, -0.259, 0.966, 132.818, 367.391)"><path class="d" d="M2.748,49.355l-.158-.706-.4-1.934-.551-2.888L1.04,40.262.759,38.326.5,36.292.286,34.24.122,32.194l-.1-2.031L0,28.241.036,26.97l.081-1.176.122-1.085.186-1.077.236-.94.281-.816.272-.6.3-.5.331-.42.359-.345.518-.376.5-.289.481-.211L4.171,19l.651-.1h.634l.621.1.609.176.593.245.582.314.826.559.774.645.718.7.635.7.579.712.464.626.673,1,.237.393-.178-.639-.453-1.742-.6-2.585-.309-1.5-.308-1.669-.275-1.714-.234-1.783-.173-1.8-.1-1.767L10.126,8.7l.031-1.123L10.232,6.5l.136-1.065.2-.97.248-.884.244-.649.281-.579.317-.517.353-.459.407-.411.456-.34.507-.275.567-.208.593-.117L15.107,0l.559.055.551.137L16.746.4l.525.276.526.348.528.428.645.626.64.726.639.838.587.874.575.943.56,1.015.777,1.561.726,1.625.67,1.645.6,1.606.55,1.586.467,1.444.748,2.52.461,1.723.158.638-.072-.637-.126-1.694-.042-1.1,0-1.314.047-1.363.12-1.452.126-.973.173-.96.219-.949.276-.931.334-.871.392-.817.345-.584.386-.531.425-.479.467-.431.507-.373.562-.308.62-.244.685-.18.553-.048.554.05.564.151.582.262.535.326.553.412.568.507.587.612.715.851.728.98.742,1.121L39.935,11l.69,1.23.685,1.318.969,2.011.927,2.078.874,2.1.8,2.036.748,2,.649,1.819,1.063,3.164.678,2.156.239.8Z"/></g><g class="e" transform="translate(229.801 388.778)"><path class="d" d="M792.726,619.211l.825-.486.639-.458.486-.434.435-.485.329-.455.233-.432.265-.675.156-.618.212-1.137.089-.34.126-.3.163-.269.21-.228.3-.2.407-.176.959-.322.831-.306.774-.34.644-.365.389-.284.337-.317.288-.353.237-.389.192-.455.146-.532.227.879.268.8.563,1.518.228.749.15.764.043.517-.018.552-.084.591-.149.58-.246.651-.357.733-.3.613-.228.608-.166.606-.173.923-.1.915-.112,1.8-.077.879-.131.843-.135.547-.189.529-.241.514-.3.481-.389.47-.49.462-.549.4-.585.332-.619.266-.644.21-.654.159-.662.11-.992.092-.938.018-.905-.038-.762-.069-1.173-.176-.442-.092-.176-.376-.388-1.009-.2-.662-.187-.79-.128-.826-.054-.885.021-.595.077-.593.138-.6.2-.573.286-.557.373-.542.444-.485.56-.458Z" transform="translate(-789.93 -608.85)"/></g><g class="f" transform="translate(243.746 402.177)"><path class="d" d="M861.408,679.493l.654-.053.531-.09.429-.12.414-.168.338-.182.274-.2.365-.335.281-.333.473-.637.238-.26.268-.186.2-.077.245-.036.3.013.908.115.764.057.49-.007.44-.061.4-.112.366-.177.35-.265.337-.365-.148.759-.08.7-.066.692-.1.659-.105.424-.166.424-.228.424-.284.388-.4.409-.541.434-.434.35-.376.373-.324.4-.43.634-.378.647-.363.647-.373.609-.271.384-.3.35-.337.315-.373.266-.442.22-.522.171-.55.09-.55.018-.554-.054-.813-.179-.771-.268-.726-.332-.614-.337-.932-.606-.347-.266.01-.381.029-.394.077-.56.122-.591.2-.657.274-.642.375-.618.306-.373.363-.329.426-.289.465-.215.547-.148Z" transform="translate(-857.57 -676.02)"/></g><path class="g" d="M51.468,29.815a78.076,78.076,0,0,1-21.384-1.669C14.026,24.829,1.61,18.034.421,12.267L0,12.355s.123-.1.386-.278a4.11,4.11,0,0,1,.033-1.555C1.389,6.085,9.887,3.844,21.3,4.383,37.963.6,66.955-2.286,114.046,2.523c90.288,9.215,17.245,22.145,17.245,22.145S117.131,40.076,90.73,40.079C79.724,40.079,66.592,37.4,51.468,29.815Z" transform="translate(111.375 406.333)"/><path class="h" d="M85.834,417.8s-.291,2.385.511,3.479c.29.387,1.9,1.193,2.029,3.125.1,1.9-.681,5.413-5.7,5.609-4.638.193-10.662-1.385-8.955-8.311,1.1-3.609,4.51-2.867,4.156-8.989-.061-4.188,2.062-8.5,3.513-8.311,1.32.162,1.418,2.223,2.351,3.9C84.348,409.455,86.056,410.872,85.834,417.8Z" transform="translate(63.756 -5.559)"/><path class="i" d="M82.578,414.282a4.575,4.575,0,0,0,.377,2.566,3.441,3.441,0,0,1,1.5,2.3c.072,1.4-.5,3.993-4.207,4.137-3.421.142-7.865-1.022-6.606-6.131.808-2.662,3.327-2.115,3.065-6.631-.045-3.089,1.521-6.273,2.592-6.131.974.119,1.046,1.64,1.734,2.876C81.482,408.127,82.741,409.173,82.578,414.282Z" transform="translate(152.316 6.963)"/><path class="j" d="M100.744,491.935c0,.452.837.579.837-.322-.032-.872-.061-3.447-.193-4.8-.032-.387-.257-1.225-.225-1.45.1-.511.772-2.159.934-2.673a21.967,21.967,0,0,0,.741-7.282c-.225-3.35-.451-3.35-.806-3.317s0,1.964.063,3.189a21.21,21.21,0,0,1-1.16,8.827c-.063.17-.451.741-.935-.193s-2.8-4.22-1.481-7.377c.419-.968-.194-.838-.682.1a5.056,5.056,0,0,0-.451,2.867,16.284,16.284,0,0,0,2.126,5.186,6.335,6.335,0,0,1,.934,1.61A55.6,55.6,0,0,1,100.744,491.935Z" transform="translate(43.912 -61.718)"/><path class="j" d="M100.179,488.636c0,.376.7.483.7-.268-.027-.727-.051-2.874-.161-4-.027-.322-.215-1.021-.188-1.209.08-.426.644-1.8.778-2.229a18.316,18.316,0,0,0,.618-6.072c-.188-2.793-.376-2.793-.672-2.766s0,1.638.053,2.659a17.685,17.685,0,0,1-.967,7.36c-.053.142-.376.618-.78-.161s-2.337-3.519-1.234-6.151c.349-.807-.162-.7-.568.08a4.215,4.215,0,0,0-.376,2.391,13.577,13.577,0,0,0,1.773,4.324,5.283,5.283,0,0,1,.778,1.342A46.354,46.354,0,0,1,100.179,488.636Z" transform="translate(131.076 -53.577)"/><rect class="k" width="260" height="260" transform="translate(58 234)"/><g transform="translate(161.909 345.53)"><path class="d" d="M392.784,398.673H351.977l-.865-.044-.836-.124-.816-.2-.8-.285-.766-.361-.72-.432-.682-.5-.641-.579-.579-.642-.5-.68-.432-.722-.361-.766-.285-.8-.2-.814-.123-.838-.044-.863v-50.7l.044-.865.124-.836.2-.816.285-.8.361-.766.432-.72.5-.68.579-.643.643-.579.68-.5.72-.432.766-.361.8-.285.816-.2.836-.124.865-.044h8.275l-.8.064-.756.161-.715.257-.677.349-.615.423-.559.5-.492.566-.413.623-.336.682-.245.72-.149.757-.05.8.06.8.158.757.254.715.344.678.422.618.5.561.566.494.62.416.68.339.719.249.757.153.8.055h.207l.808-.052.759-.149.722-.247.683-.339.623-.415.568-.494.5-.563.421-.618.348-.678.255-.719.16-.759.06-.806-.052-.808-.149-.761-.247-.722-.339-.683-.415-.623-.494-.568-.561-.5-.62-.423-.678-.346-.719-.255-.759-.16-.806-.06h23.767l-.8.064-.757.161-.715.257-.677.349-.615.423-.559.5-.49.566-.413.623-.338.682-.245.72-.148.757-.052.8.06.8.158.757.255.715.344.678.42.618.5.561.564.494.62.416.682.339.719.249.757.153.8.055h.2l.808-.052.761-.149.722-.247.683-.339.623-.415.568-.494.5-.561.423-.618.346-.68.257-.719.158-.759.062-.806-.052-.808-.149-.761-.247-.72-.339-.685-.415-.623-.494-.568-.561-.5-.62-.422-.678-.348-.719-.255-.759-.16-.806-.06h8.071l.863.044.838.124.814.2.8.285.766.361.722.432.68.5.641.579.579.643.5.68.432.72.363.766.284.8.2.816.124.836.044.865v50.7l-.044.863-.124.838-.2.814-.284.8-.363.766-.432.722-.5.68-.579.642-.641.579-.68.5-.722.432-.766.361-.8.285-.816.2-.838.124Z" transform="translate(-343.32 -330.66)"/></g><g transform="translate(173.824 338.619)"><path class="l" d="M419.422,289.51h0l.709.05.667.134.631.222.6.3.544.366.5.437.437.5.368.544.3.6.22.633.136.665.049.709v7.214l-.049.707-.136.667-.22.631-.3.6-.368.544-.437.5-.5.437-.544.368-.6.3-.631.22-.667.136-.709.049h0l-.707-.049-.667-.136-.631-.22-.6-.3-.544-.368-.5-.437-.437-.5-.368-.544-.3-.6-.22-.631-.136-.667-.049-.707v-7.214l.049-.709.136-.665.22-.633.3-.6.368-.544.437-.5.5-.437.544-.366.6-.3.631-.222.667-.134Z" transform="translate(-414.27 -289.51)"/></g><g transform="translate(197.804 338.619)"><path class="l" d="M562.222,289.51h0l.709.05.667.134.631.222.6.3.544.366.5.437.437.5.366.544.3.6.22.633.134.665.05.709v7.214l-.05.707-.134.667-.22.631-.3.6-.366.544-.437.5-.5.437-.544.368-.6.3-.631.22-.667.136-.709.049h0l-.707-.049-.667-.136-.631-.22-.6-.3-.544-.368-.5-.437-.437-.5-.368-.544-.3-.6-.22-.631-.136-.667-.049-.707v-7.214l.049-.709.136-.665.22-.633.3-.6.368-.544.437-.5.5-.437.544-.366.6-.3.631-.222.667-.134Z" transform="translate(-557.07 -289.51)"/></g><g transform="translate(173.824 367.644)"><path class="g" d="M414.27,477.559l4.375-5.589,9.523,8.5.606-.729,1.768-2.007,1.239-1.337,1.614-1.676,1.76-1.751,2.1-2,2.24-2.027,2.551-2.186,1.76-1.439,1.881-1.468,2.005-1.5,1.439,1.97,1.359,2.017,1.281,2.071,1.2,2.121-1.248.744-1.357.846-2.133,1.389-2.354,1.6-2.992,2.131-3.154,2.358-3.664,2.88-2.465,2.022-2.631,2.243-2.808,2.48-2.017-1.809-2.47-2.119-2.647-2.213-2.541-2.1-2.161-1.762-1.5-1.214Z" transform="translate(-414.27 -462.35)"/></g><g transform="translate(156.199 300.798) rotate(14)"><path class="m" d="M1281.608,392.957l-.145,2.526-.286,2.141-.407,1.8-.515,1.508-.6,1.252-.682,1.033-.759.839-.839.669-.925.515-1.024.367-1.145.213-1.286.052-1.37-.145-1.231-.312-1.114-.475-1.04-.629-.9-.719-.777-.814-.672-.907-.519-.919-.376-.938-.247-.978-.08-.91.071-.854.16-.623.256-.549.348-.487.453-.438.512-.333.63-.256.768-.167.938-.065.744.349.617.416.509.481.411.552.305.617.189.657.068.709-.059.777-.176.737-.318.771-.478.817-.664.873-.721.756-.91.771-1.129.786-1.373.808-1.36.663-1.6.648-1.869.623-2.169.592-1.357.219-1.092.312-.87.386-.688.453-.617.583-.463.629-.327.682-.191.749-.074,1.043.115,1.111.321,1.2.469,1.16.623,1.166.784,1.175.888,1.1.981,1.027,1.083.956,1.16.852,1.191.7,1.224.555" transform="translate(-1253.14 -376.118)"/><path class="b" d="M1053,11.956l4.232,1.663L1058.79,0,1044.9,8.856l3.782,1.632,8.7-8.513-6.9,9.285.037,3.846Z" transform="translate(-1021.399 0)"/></g></g></svg>