<svg xmlns="http://www.w3.org/2000/svg" width="30" height="30" viewBox="0 0 30 30"><defs><style>.a{opacity:0.2;}.b{fill:none;stroke:#fff;stroke-width:1.5px;}</style></defs><g transform="translate(-339.108 -54)"><g transform="translate(339 54)"><rect class="a" width="30" height="30" rx="15" transform="translate(0.108)"/></g><g transform="translate(345.273 60.272)"><path class="b" d="M279.5,111.139c0-1.467.009-2.935-.006-4.4a.72.72,0,0,1,.564-.794,4.568,4.568,0,0,0,2.981-3.277,14.386,14.386,0,0,1,.531-1.632,1.548,1.548,0,0,1,1.954-.95A1.532,1.532,0,0,1,286.7,101.7c.009,1.089,0,2.178,0,3.268,0,.6.106.719.715.725,1.225.014,2.452.042,3.675-.006a1.448,1.448,0,0,1,1.607,1.881c-.328,1.454-.743,2.889-1.148,4.326-.249.886-.542,1.76-.829,2.634a2.148,2.148,0,0,1-2.282,1.668h-8.032c-.863,0-.905-.042-.905-.884q0-2.086,0-4.174Z" transform="translate(-274.828 -100.026)"/><path class="b" d="M89.461,113.912c0,1.365,0,2.731,0,4.1,0,.672-.127.79-.784.792-.189,0-.377,0-.567,0a1,1,0,0,1-1.142-1.154c-.008-1.423,0-2.847,0-4.271,0-1.046,0-2.092,0-3.137a1.085,1.085,0,0,1,1.226-1.231c1.268,0,1.268,0,1.268,1.244Q89.463,112.081,89.461,113.912Z" transform="translate(-86.961 -102.63)"/></g></g></svg>