<svg xmlns="http://www.w3.org/2000/svg" width="75" height="60.001" viewBox="0 0 75 60.001"><defs><style>.a{fill:#fb7b12;}.b{fill:#fff;font-size:15px;font-family:SourceHanSerifSC-Bold, Source Han Serif SC;font-weight:700;}</style></defs><g transform="translate(7377.016 8852.972)"><path class="a" d="M33.974,59.989V60S33.974,59.993,33.974,59.989Zm0-.028h-.041a.924.924,0,0,1,.041-.274v-.2c-.242.477-.968.239-1.733.239l.444-.437v.2a.164.164,0,0,0,.014-.212l.027-.026c-.2-.159-.887,0-1.25,0,0,.238.484,0,.242.238-.524.239-.524,0-.766-.238V58.013c0,.239.524.239.766,0a.235.235,0,0,0,.242.239c.241,0,0,0,0-.239.241,0,.483,0,.483.239a2.168,2.168,0,0,1,1.733,0h.04v.517a1.571,1.571,0,0,0-.234.9c.163-.483.675-.628.436-.46,0,.278-.483.278-.241.755h-.2c0,.01,0,.019,0,.028Zm3.224-.477v0Zm0,0Zm-.2-.04c.081-.04.121,0,.161.04C37.077,59.484,37.037,59.484,37,59.444Zm-.041-.188c0,.111,0,.15.041.188l-.041.04Zm-4.271-.011.014.026-.014.014Zm4.271,0v0ZM29.7,59.007c-.242,0,.242-.239.242-.239,0-.238.241-.517.282-.993,1.008.238.242,0,0,.476a.849.849,0,0,1,.484.238v.755C30.185,59.245,30.185,58.768,29.7,59.007Zm9.229-.278h.242s.242.239,0,.239A.236.236,0,0,1,38.93,58.729Zm-2.741,0,.242-.238h-.766A.415.415,0,0,0,35.84,58a.127.127,0,0,0,.068.011.234.234,0,0,0,.242-.238s-.484,0-.484-.238h.766a.749.749,0,0,1-.121.318.548.548,0,0,1,.121.158c.242,0,0-.238,0-.476,0,0,.766,0,.766-.239.14.119.272.059.4,0s.247-.12.368,0v.755a.127.127,0,0,1-.081.04c.322.04.363-.2.484-.358,0,.041,0,.041.04.08,0,0,.484,0,.242.238a.235.235,0,0,0,.242-.238c-.242-.517.241-.517,0-.755.241,0,1.249-.238,1.49,0,.283-.477,1.532-.238,2.015-.477.242,0,0,.477.242.239,0,.238,0,.238-.242.238.242.238.242,0,.484,0,0-.278-.484-.278-.242-.517a6.258,6.258,0,0,0,2.983-.755.234.234,0,0,1,.241.239c.242-.239,1.008-.715,1.249-.477,1.491-.994,3.265-1.708,5-2.7V52.61c.283,0,.524-.238.766-.238,1.249-.517,1.733-1.749,2.982-1.987v-.238l.766.476c-.241-.754,1.008-1.231,1.249-1.986.484,0,.484-.238.484-.476,0,.012.006.232.241,0,0-.477.525-.994.766-1.232a.236.236,0,0,0,.242.238c0-.278-.483-.278-.242-.517a3.637,3.637,0,0,1,.806-1.192l.2.2q0-.114,0-.222a.21.21,0,0,1-.122.023,1.706,1.706,0,0,1,.123-.176,2.92,2.92,0,0,1,.24-1.334c.242,0,.242-.239.484-.239,0-.238-.484,0-.242-.238,2-1.967,3-5.336,3.492-9.684l1.384.227c-.241.715-.241,1.948-.483,2.941l-.242.238a3.154,3.154,0,0,0-.241,1.471l-.242.238v.477a.236.236,0,0,1-.242.238v.476a.235.235,0,0,0-.241.238c-.242.278,0,.517,0,.755s0,.239-.242.239c-.242.238-.242.994-.483,1.471l-.484.477v.278c0,.238-.241,0-.241.238a1.524,1.524,0,0,1-.242.994c-.283.239-.524.239-.766.477-.242.278,0,.517-.242.755-.241,0-.241,0-.483.238a2.321,2.321,0,0,1-1.007,1.47v-.238a.235.235,0,0,1-.242.238c0,.239,0,0,.242,0-1.008,1.471-2.5,2.226-3.506,3.7-.483.239,0-.238-.242-.238-.2,0-.041.158,0,.357.081,0,.122,0,0,.119-.967.517-1.732,1.51-2.982,1.987-.242,0-.242,0-.242-.238-.242.238,0,.238,0,.477-.242,0-.524.238-.766.238a16834.95,16834.95,0,0,1-.483.476v.477h-.484a5.128,5.128,0,0,1-1.733.994V56.3c0,.238-.242.238-.242,0-.483.278-1.249.517-1.732.755h-.242a1.024,1.024,0,0,1-.766.238c.242,0,.242-.238.242-.477-.524,0-.524-.477-.766-.239v.477l.242.238c-.242,0-.766.239-1.008-.238-.241,0,0,.238,0,.477-.524,0-.765,0-1.007.238-.242,0-.242,0-.242-.238-.524,0-.524.238-.766.238,0-.238,0-.238-.241-.238a3.373,3.373,0,0,1-1.169.357c0-.04-.041-.079-.08-.119-.242,0-.242.238-.484.238v.477h-.241v-.238c-.484,0-1.25.238-1.733.238-.524-.238-1.249,0-2.257,0,0,.238-.483.238-.483.477C36.19,58.967,36.19,58.967,36.19,58.729Zm0-.477a1.032,1.032,0,0,1,.041-.278C36.11,58.054,36.069,58.133,36.19,58.252Zm1.491-.517c-.241,0,0,0,0,.239a.247.247,0,0,0,.161.04c-.065-.032,0-.329-.079-.329C37.744,57.684,37.718,57.7,37.681,57.735ZM55.9,51.377a.128.128,0,0,0,.121.12c0-.084.019-.186-.024-.186C55.976,51.311,55.946,51.33,55.9,51.377Zm-21.44,7.351c0-.238.483,0,.242-.238a.234.234,0,0,1,.241.238Zm-6.287-.318c-.242,0-.525-.238-1.008-.238,0-.238-.242-.238,0-.477H26.68a.829.829,0,0,0-.242-.477c0,.238-.242.238-.242.477-.483,0-.483-.477-1.249-.238,0-.278-.241-.517-.241-.755a.234.234,0,0,1,.241.238c.524-.278,0-.517-.241-.755,0,.517,0,.517-.242.755-.242,0,0-.476-.242-.238,0,.517.484.517.242.755a5.969,5.969,0,0,0-2.015-.755,2.254,2.254,0,0,0-.242-1.231c-.241.239.242.239,0,.477-.483-.238-.483-.715-1.249-.477,0-.238,0-.477.242-.477a.236.236,0,0,1-.242-.239c-.111.218-.281.129-.455.04-.208-.105-.422-.211-.553.2a27.1,27.1,0,0,1-2.74-1.709v-.476c-.242,0-.242,0-.242.238-.282-.238-.282-.477-.766-.477a.948.948,0,0,1,.242-.755.24.24,0,0,1,.2.079l.08-.079c.242,0,.484-.477.484-.238a.483.483,0,0,0,0,.755h-.242v.238c0,.239.524,0,.766.477.242,0,.242-.517.242-.755h.241s0-.477.242-.238c-.242.517.483.278.242.755.725.238,1.733.476,1.49,1.231.242,0,.242,0,.484.239l.241-.239c.725,0,1.008.517,1.491.755,0,.239-.242.239-.242.477a.236.236,0,0,0,.242-.238,1.841,1.841,0,0,1,1.491.755c.282.477.524.239.766.239-.242.238.241,0,.241.238v-.238a17.233,17.233,0,0,0,3.749,1.232c0,.238.282.238.282.476.283,0,.524-.238.766-.238v.238h-.483c0,.239.483.239.2.4-.484.238,0-.238-.242-.238,0,.278-.483.517-.242.755A1.023,1.023,0,0,0,28.171,58.411Zm13.581-.517c-.04.119-.322.119-.322.119C41.55,57.974,41.631,57.934,41.752,57.894Zm-5.925.079q.007.014.013.029A.033.033,0,0,1,35.827,57.974Zm-.161-.239c.161,0,.122.12.122.159C35.747,57.855,35.707,57.776,35.666,57.735Zm3.007-.238a.425.425,0,0,0-.306.159C38.3,57.516,38.6,57.5,38.673,57.5Zm.016,0h0ZM35.344,52.57v-.5a1.846,1.846,0,0,0-.322-.02.266.266,0,0,0,.161-.2c-.242,0-.242.239-.483,0,.241-.238.241-.238.483-.238,0,.238.242,0,.242.238v.211a5.362,5.362,0,0,0,.685.028c1.249,0,2.74-.477,3.748-.239.283-.238.524-.477.766-.238.242-.517,1.249-.517,1.733-.755.241,0,0,.517,0,.517.241-.477,1.249-.715,1.49-.477.242,0,0,0,0-.238,1.491-.238,2.257-1.232,3.506-1.471a1.214,1.214,0,0,1,1.29-.795.15.15,0,0,0,.121.04h.081l-.483.477a12.076,12.076,0,0,1-2.257,1.47.234.234,0,0,1-.242-.238c0,.517-1.007.754-1.49.754a22.018,22.018,0,0,1-4.232,1.471.235.235,0,0,1-.242-.239c-.242.239-1.249.239-1.491.477v-.238c-.241,0,0,0,0,.238-1.209,0-2.217.238-3.224.238C35.183,52.57,35.183,52.57,35.344,52.57Zm.524-.238a.235.235,0,0,0,.242-.238A.235.235,0,0,0,35.868,52.331Zm-2.176-.2a3.314,3.314,0,0,1-.644-.04c.161-.079.2-.239.4-.239v.239a1.079,1.079,0,0,1,.926,0,1.665,1.665,0,0,0-.685.278Zm.685-.04a3.318,3.318,0,0,1,.645-.04c-.121.079-.242.119-.081.278A3.435,3.435,0,0,0,34.376,52.093Zm-2.417,0a.27.27,0,0,0,.241-.159,1.808,1.808,0,0,1,.2-.04c-.2.2-.2.2-.2.437A.235.235,0,0,0,31.959,52.093Zm-14.75.079c.241,0,.241-.4.241,0Zm15.6-.158c-.121-.04-.2-.08-.322-.12.08,0,.121-.04.2-.04.161,0,.121.079.121.159.081,0,.161.04.242.04a.151.151,0,0,1-.121.04C32.846,52.093,32.805,52.053,32.805,52.014Zm-1.758-.162c.053-.009-.1-.049-.1-.236.484,0,.725.238,1.249.2v.079a3.5,3.5,0,0,1-.4.023A4.664,4.664,0,0,1,31.047,51.852Zm1.436-.037a.039.039,0,0,0,.041.04.151.151,0,0,1-.121.04Zm-1.556.016.121.021a.858.858,0,0,1-.1,0Zm-2.837-.851c0-.04,0-.12.121-.12.725,0,1.008.238,1.491.238a.236.236,0,0,1-.242.239c0,.238.242,0,.242,0,.242,0,0,0,0-.239a8.577,8.577,0,0,1,1.225.732C29.946,51.651,28.959,51.229,28.09,50.981Zm-.4.119c.183,0,.233,0,.241-.119l-.482-.119c.2-.079.363-.119.483,0v.08c.041,0,.08.04.121.04,0,.079,0,.119-.121.119,0,0-.108.106-.179.106C27.714,51.205,27.687,51.179,27.687,51.1Zm-.644-.158c.04,0,.04-.041.04-.12.081.04.242.079.162-.079.08,0,.2,0,.2.119a.566.566,0,0,1-.3.1A.334.334,0,0,1,27.042,50.941Zm-.081-.08Zm-.806-.238a.591.591,0,0,1,.08-.4,3.265,3.265,0,0,0,.927.4c-.081,0-.081.08-.121.2-.081-.04-.122-.04-.122.04C26.921,50.622,26.4,50.622,26.156,50.622ZM14.71,50.384c.121-.119.121-.059.121,0s0,.119.122,0c0,.239,0,.477-.242.477Zm12.494.239c0,.04.04.08.04.12C27.122,50.742,27.082,50.742,27.2,50.622Zm0,0Zm-2.015-.437s-.242,0,0-.239a2,2,0,0,1-2.015-.994.235.235,0,0,1-.242.238,1.544,1.544,0,0,0-.2-.556l-.04.04-.122-.119h.161a.148.148,0,0,1-.04-.12h-.2l.08.079a.1.1,0,0,1-.117-.079h0l-.242-.238v.238c-.241,0-.241-.477-.483-.238,0-.517.483-.517.242-.755-.242,0,0,.239-.242.239,0-.239-.483,0-.242-.239.242,0,.242,0,.242-.238a.584.584,0,0,1,.483.319v-.08a9.222,9.222,0,0,0,2.5,1.709c0,.239-.484.239-.242.477,0,0,.242,0,.242-.2a5.55,5.55,0,0,1,1.451.755c-.122.04-.2.079-.2.238C25.672,50.424,25.43,50.186,25.188,50.186Zm-10.72-.04s.483,0,.241-.239h.242v.239s0,.106-.143.106A.826.826,0,0,1,14.468,50.146Zm11.687,0a.439.439,0,0,1,.322,0,.238.238,0,0,0-.2.079C26.236,50.186,26.2,50.186,26.156,50.146Zm-11.688-.041h0s0,0,0,0Zm-.242-.476c.224,0,.241.441.242.476C14.226,50.106,14.468,49.868,14.226,49.63ZM5.239,48.6l-.2.04-.887-4.808-.161-.636v-.158l-.161-.954-.846-3.06a.235.235,0,0,0,.241-.238c-.241-.279-.725-1.51-.483-1.987-.766-.477-.766-1.947-1.249-2.94-.242-.238.242,0,.242-.238s-.242,0-.484-.239c0-.48,0-.72-.193-.943.195.188.211-.068.436-.289a.236.236,0,0,1,.242.238.234.234,0,0,1,.241-.238v-.119l-.363-1.868H1.451v-.477c-.241,0,.242.238-.241.238v-.238c-.242,0-.242-.239-.484-.239V29.2a.588.588,0,0,0,.561-.059.5.5,0,0,1,.689.059c.242-.238.484-.238.484-.477.241-.278.241,0,.241.239,0-.517.766-.278,1.25-.517,0,.278.483,0,.241.517h.484v-.278c0-.273-.079-.234-.148-.2-.05.03-.095.059-.095-.043,0-.239.766-.715,1.007-.239.242,0,0,0,.242-.238a.234.234,0,0,0,.242.238,7.36,7.36,0,0,1,2.256-.6v.12h.484V27.5c.174-.058.37-.115.541-.187l-.3.148h.283c-.242,0,0,.238,0,.238h.524a.144.144,0,0,0,.041.12.39.39,0,0,0-.041.159.23.23,0,0,1-.081.2l.4-.079v-.159a.859.859,0,0,0,.242.041c0-.016,0-.031,0-.046a.574.574,0,0,0,.042.046l.322-.08a1.491,1.491,0,0,1-.444-.2c0,.009,0,.019,0,.028-.126-.132-.34-.051-.162-.226,1.491-.239,2.741-1.232,4.232-.994.242,0,0,0,.242-.239a13.7,13.7,0,0,1,3.224-.994c1.491,0,2.982-.755,4.232-.994,3.264-.754,6.529-1.748,9.51-2.463a11.674,11.674,0,0,0,1.25-.239c0,.239,0,.239.241.239v.477h.242c-4.433,1.152-8.866,2.146-13.3,3.338l15.355-3.776a.721.721,0,0,1-.081-.278h.242v.239l.6-.318c.121-.238.444-.4.121-.556h.241V20.7c7.255-1.987,14.226-3.974,21.48-5.683.484,0,.242.238.484.238a.335.335,0,0,0-.081-.238h.081v-.238c.43,0,.893-.188,1.331-.23.005-.088.027-.091.118-.007h.042a.314.314,0,0,1,0,.038l.082.081h-.106c-.062.129-.216.167-.216.357.524,0,.282-.476.766-.238v-.238h-.242c.483-.238,1.249-.238,1.733-.477l1.249-.477c1.773,0,3.022-.755,4.513-.994h.242c.241,0,.241,0,.241.239a.577.577,0,0,0-.241.079c-.081-.079-.242-.119-.283-.2-.08.238-.041.318.04.357a3.46,3.46,0,0,1-.36.223,2.288,2.288,0,0,1,.424-.125.9.9,0,0,1,.218-.137c.029.028.057.056.043.1a4.139,4.139,0,0,1,.441-.019,3.138,3.138,0,0,0-.447.031.192.192,0,0,1-.037.048h-.218a4.665,4.665,0,0,0-1.031.4C64.2,14.3,61.7,15.06,59.2,15.536a.271.271,0,0,1,.041.278l9.752-2.384a1.138,1.138,0,0,0-.08-.357c.524.278.282-.477.766-.477-.268,0-.388-.073-.441-.179a1.747,1.747,0,0,0,.4.021c0-.225-.215-.238-.443-.238,0-.026,0-.053,0-.08-.241,0,0,.517-.241.755-.162,0-.2-.119-.242-.238V12.4h.242v-.238c-.148,0-.127,0-.061-.061-.072-.078-.121-.177.1-.177h.927c0,.715.2,1.152.04,1.43l.04.2c.041,0,.08.04.161.119,0,.954.967,1.948.483,2.94.524.278.524,1.51.766,1.987-.483,0-.242-.477-.483-.239A2.455,2.455,0,0,1,71.978,20.3a.536.536,0,0,1,.2.04c-.242.993.725,1.708.242,2.463,1.007,1.232.483,3.179,1.49,4.172A23.74,23.74,0,0,0,75,31.271a57.472,57.472,0,0,0-6.73,1.987H66.254c-.524,0-.524.238-1.007.238.161-.278.081-.318-.04-.357l-.4.12a.848.848,0,0,0-.04.238c-.137.068-.275.164-.412.241l.009-.082a6.977,6.977,0,0,1-3.466.954.521.521,0,0,0-.121-.4l-.161.04c.081.12.162.238.041.358-1.491.278-2.982,1.231-4.232.755l-.121.04s0,.079-.121.2c-5,1.471-10.479,2.7-15.718,4.172-.2,0,0-.2-.2-.238H40.22v.238H40.1a.291.291,0,0,1,.04-.2l-.242.079a.881.881,0,0,0,.2.119c0,.159,0,.278-.121.278-1.249.239-1.975.715-2.983.477,0-.04.041-.079.041-.119l-1.41.357h.483c0-.079,0-.119.121,0,0,.04,0,.079-.041.079,0,.08.484-.04.283.159-.766,0-1.008.477-2.015.238a.224.224,0,0,0,.2-.238h-.081c-.121.079-.2.119-.322.2,0-.04.04-.08.04-.12h-.04c-.041.04-.041.08-.08.159.04,0,.04-.04.08-.04a1.851,1.851,0,0,1-.322.556H33.45V42c-1.774.238-3.749,1.231-4.756.993-.242,0,0,0-.242.239-.483,0-1.249.477-1.733.238-.241,0,0,0-.241.238-4.272.954-8.262,2.185-12.494,2.94a13.861,13.861,0,0,1-2.741.517l-1.249.477c-3.264.755-1.531.238-4.756.994Zm8.423-2.186c.161.041.322.12.322.238,0-.158-.08-.2-.2-.278Zm19.345-4.887C32.6,41.523,33.007,41.762,33.007,41.523Zm2.942-.517a.106.106,0,0,0,.121-.12c-.04,0-.085,0-.12,0C35.877,40.883,35.841,40.9,35.949,41.007Zm1.934-.834a.14.14,0,0,1,.081.119.387.387,0,0,1,.04-.158ZM65.57,32.98c-.08.238.121.357.322.158V32.9ZM1.975,32.423h.081l-.041-.158A.294.294,0,0,0,1.975,32.423Zm71.172-2.3a.517.517,0,0,1,.241.04c.283-.239.524-.715,0-.954-.241,0,.242.715-.241.477a6.183,6.183,0,0,0-.484-2.106C72.824,28.371,73.106,29.881,73.147,30.119ZM1.773,30.08l.927-.239c-.04-.041-.04-.08-.04-.159a.849.849,0,0,0-.484.238c-.241-.238-.241-.238-.483-.238A.593.593,0,0,0,1.773,30.08Zm1.29-.319.363-.079c-.04-.119-.08-.239-.241-.239S3.063,29.6,3.063,29.761Zm.725-.158.2-.04v-.12H3.749A.4.4,0,0,0,3.788,29.6ZM5.2,29.245h.08c0-.04-.041-.04-.08-.04Zm.524-.2c0,.04-.041.079-.041.119l.121-.04a.138.138,0,0,1-.04-.079c0-.04.04-.04.04-.08h.122c0-.239.04-.239.241-.239H5.925a.82.82,0,0,0-.161.239H5.723Zm.241.04.242-.08a.522.522,0,0,0-.242-.04Zm-.483-.159a1.024,1.024,0,0,0-.766-.239A.759.759,0,0,0,5.481,28.927Zm1.733-.158c.04-.041,0-.041-.041-.041C7.052,28.728,7.133,28.728,7.214,28.769ZM8.1,28.53l1.007-.239-.161-.318h-.04v.238H8.665A2.583,2.583,0,0,0,8.1,28.53Zm1.088-.556h.524c-.2,0-.242-.2-.524-.239h-.04c-.161.04-.161.2.04,0C8.947,27.974,8.947,27.974,9.189,27.974Zm64.441-.755v-.477c-.483-.278,0,.238-.483.477a.281.281,0,0,0-.121-.239h.121c.241-.238.241-.238.241-.477h-.241c0,.2-.162.239-.2.357a.143.143,0,0,1-.04-.119v.238c0-.04.04-.08.04-.12,0,.04.04.08.08.12H72.9a.236.236,0,0,1,.242.239c.161,0,.107-.106.2-.106A.815.815,0,0,1,73.63,27.219Zm-60.088,0,.443-.12V26.98H13.5C13.5,27.1,13.5,27.178,13.541,27.219Zm.927-.477c.241.238.483-.239.241-.239A.235.235,0,0,0,14.468,26.742ZM72.9,26.464v-.477h-.242C72.421,26.225,72.662,26.225,72.9,26.464Zm-.483-1.709c.241-.239-.283-.477-.242-.477.242,0,.242,0,.242-.238,0-.2-.323-.08-.444-.159.081.4.081.437.161.795,0-.079.04-.119.04-.159.048-.048.077-.067.095-.067C72.344,24.449,72.228,24.755,72.421,24.755Zm-34.82-3.5.363-.079v-.014a.066.066,0,0,0,.04.014l.4-.12H37.48A.851.851,0,0,0,37.6,21.258Zm34.3-.437c.122,0,.081-.119.041-.278A.662.662,0,0,1,71.9,20.821Zm-12.976-5.4c.08.079.161.119.241.2v-.477S59.162,15.417,58.92,15.417Zm6.246-1.51c.242-.238.484-.238.484-.477h-.484Zm3.789-1.788v-.04l-.02.02ZM48.724,48.358a.232.232,0,0,1-.081-.2,1.035,1.035,0,0,0,.283.079,27.715,27.715,0,0,0,4.755-4.688c.525,0,.525,0,.766.238h-.524c0,.715-.766.715-.766,1.471-.765.477-1.249,1.471-2.015,1.709v.238H50.9v.238h-.242l-.242.239-.241-.239c-.242.239.241.239,0,.477-.524-.238-.524.238-.766.238,0,0,.242-.238,0-.238a.426.426,0,0,1-.483.4v.04c-.041,0-.041.04-.081.04A.15.15,0,0,0,48.724,48.358ZM48.926,48.358Zm0,0C48.965,48.318,49.006,48.318,48.926,48.358Zm9.43-.2h0S58.356,48.159,58.356,48.159Zm1.813-2.7h.08l-.04.04Zm-5.723-1.749c.242-.238,0-.994,0-1.232a15.557,15.557,0,0,0,2.983-6.4.4.4,0,0,0,.518-.12c.126-.119.247-.238.489-.119a25.68,25.68,0,0,1-2.78,6.4.589.589,0,0,1-.766.238c.282.517,0,.994.041,1.232Zm-50.7-.477.241.238C3.708,43.47,3.708,43.232,3.749,43.232Zm31.958-.993c.483,0,.483,0,.483.239C35.949,42.477,35.949,42.477,35.707,42.239ZM64.28,33.775l.072-.038-.005.049ZM1.008,32.384c.017.017.033.034.048.051C1.041,32.42,1.025,32.4,1.008,32.384ZM0,29.444c.484,0,.484.239.484.239v.994C.242,30.2.242,29.96,0,29.444Zm9.793-1.589a.187.187,0,0,1,.2-.119v.239A.935.935,0,0,1,9.793,27.854Zm.4-.132a.318.318,0,0,1,.079.206A.349.349,0,0,1,10.2,27.722ZM8.7,27.457a1.087,1.087,0,0,1-.483.119C8.222,27.457,8.3,27.457,8.7,27.457Zm.686-.239a1.549,1.549,0,0,1-.184.091ZM5.723,27.1c.241-1.231,0-1.47.241-2.7a12.6,12.6,0,0,0,.766-3.179h.242c-.242-.715.242-.715,0-1.471.363,0,.363.278.483.319-.041.04-.041.119.04.2,0,.239.242,0,.483,0a1.138,1.138,0,0,1,0-1.231c-.241,0,0,.238-.241.476-.242,0-.242-.238-.484-.238,0-.238.484-.238.242-.477h.483c0-.239-.241-.239-.241-.477a.342.342,0,0,0,.241-.079V18.6c.525.239.525-.755.766-.755.242-.278.242-.755,0-.755A12.181,12.181,0,0,0,9.511,15.1h.483c0-.278.242-.517.242-.755a.039.039,0,0,0-.04-.04,1.465,1.465,0,0,0,.04-.437l.242-.238c.241-.238.241-.238.241-.477a.991.991,0,0,0,.242-.755c.242-.238.242-.238.483-.238v-.238c0-.239.524-.239,1.008-.239v-.437c.266,0,.029,0,0,.2.237.233,0-.241.239-.241a.235.235,0,0,1-.241-.238A27.37,27.37,0,0,1,23.415,2.94l.765-.477c.484-.278,0,.477.242.477s0-.238,0-.477c0,0,.524-.477.766,0,.242,0,0,0,0-.238.524-.517,1.249-.517,2.015-.755.242,0,0,.477.242.239a2.973,2.973,0,0,1,2.5-.755c0-.238.282-.238.766,0,1.209,0,1.732-.477,3.224-.238a.236.236,0,0,0-.242.238h.242c-.242-.238.242-.238.242-.477A5.814,5.814,0,0,1,36.916.238C37.44,0,37.44.238,37.923,0c.145.429.464.343.861.257a1.673,1.673,0,0,1,.871-.019V.993c.242,0,.484,0,.484-.238.524,0,1.007,0,.766.238.241,0,.241,0,.241-.238a20.342,20.342,0,0,1,3.708.715h-.242l.121.119c-.081,0-.121,0-.121.12-.483,0,0-.477-.241-.239,0,.239-.242.239-.242.477a2.53,2.53,0,0,0,.725-.079c-.041.119-.161.158,0,.318a.235.235,0,0,0-.242.239,5.016,5.016,0,0,0-1.991-.477c.055.049.071.106-.024.2,0-.238-.524-.238-.765-.238V1.43c0,.755-1.25.238-1.491,0-.122.119-.364.059-.671,0a2.12,2.12,0,0,0-1.063,0s-.483,0-.241-.238c-.242,0-.242,0-.242.238-2.741,0-5.481.477-7.5.238-.242,0,.242,0,0,.238-3.224.238-5.481,1.708-7.979,2.463-1.008.994-2.74,1.471-3.506,2.463-.524,0-.282.477-.766.239-.241.278-.241.517-.483.755-.725.239-.968.994-1.733,1.471-.765.238-1.249.755-1.249,1.231h-.765c-.242.715-1.008.715-1.008,1.471H12.9v.477a15.613,15.613,0,0,0-2.982,4.689.235.235,0,0,1-.242-.239h.242l-.484-.239c-.241,0,0,.477-.241.239,0-.239-.242,0-.242-.239,0,.239.242.239.242.477H9.43V17.4c0,.238.484,0,.242.238-.483,0-.242-.238-.483-.238v.238a.83.83,0,0,1,.241.477c0,.556-.282.676-.4,1.033.121.159-.081.635-.081.437a1.209,1.209,0,0,1,.081-.437c0-.04-.041-.04-.081-.04a.327.327,0,0,0,0,.477C8.222,22.053,7.214,23.8,7.214,27.1ZM42.6,1.927a.3.3,0,0,0-.119-.219c0,.04-.041.04-.121-.04C42.357,1.8,42.506,1.86,42.6,1.927Zm-.038-.418c.121,0,.282.04.121-.119C42.558,1.391,42.558,1.43,42.558,1.509ZM13.945,24v.755c-.242,0-.484.238-.766.238C13.46,24.755,13.46,24,13.945,24Zm-.444-.2c.242-1.709,1.008-2.7,1.491-4.172h.483c0-.278-.241-.517,0-.755v-.04h.968c0,.517-.242.517,0,.755-.725.715-.725,1.947-1.491,2.7,0,.517-.242.517-.242.755-.241,0,0-.477-.241-.239h-.242c-.242,0,0,.517,0,.755a.235.235,0,0,0-.242.239ZM33.45,22.053c0,.08-.027.106-.054.106C33.343,22.159,33.289,22.053,33.45,22.053Zm0,0C33.208,22.053,33.208,21.814,33.45,22.053Zm-.242-.715h.242a.327.327,0,0,0,0,.477A.829.829,0,0,1,33.208,21.337Zm.242-.04h.524c.241,0,0,0,.241-.238,0,0,.484-.239.242,0H34.7a.194.194,0,0,1-.131.184.178.178,0,0,1,.131.055v.239c-.242,0-.242,0-.484.239C33.934,21.536,33.692,21.775,33.45,21.3Zm.725.239c0,.2.161-.159.282-.278C34.337,21.337,34.176,21.417,34.176,21.536Zm.524-.477c.241,0,.241,0,.241.238A.234.234,0,0,0,34.7,21.059Zm-2.015.238c0-.238,0-.477.483-.238V21.3Zm5.239-.238h.041v.105A.128.128,0,0,1,37.923,21.059Zm-2.539-.079a.435.435,0,0,1-.2.119C35.223,21.059,35.3,21.059,35.384,20.98Zm-.2-.159c0,.239-.242.239-.483.239Zm.483-.239a.784.784,0,0,1-.282.4A1.835,1.835,0,0,1,35.666,20.582Zm-28.21-.476a.927.927,0,0,1,.283-.04.513.513,0,0,1-.209.066A.1.1,0,0,1,7.456,20.106Zm8.987-1.51c0-.239-.242,0-.483,0,.241-.278.483-.278.483-.755.162-.138.137-.024.094.088-.031.084-.071.167-.054.15.2,0,.443-.2.685-.239a7.622,7.622,0,0,1-.967.994C16.2,18.6,16.2,18.6,16.443,18.6ZM7.979,18.278Zm.041-.239a.5.5,0,0,1-.041.239C7.979,18.158,8.02,18.119,8.02,18.04ZM7.979,17.6h.242a1.807,1.807,0,0,0-.2.4C8.02,17.88,7.979,17.722,7.979,17.6Zm.725.238h0a.031.031,0,0,1,0,0Zm8.464,0,.041-.04v.04Zm-8.7-.239a.249.249,0,0,1,.241.238A.234.234,0,0,1,8.464,17.6Zm8.7-.04c0-.239,0,0-.242,0,0-.517.242-.517.242-.755.524,0,.282-.715.766-.477v-.476c.241,0,0,.476.241.238-.524-.476.484-.754.242-1.231.524,0,.766-1.232,1.008-.477.241,0,0-.239,0-.477.282-.238.282-.477.765-.477l-.241.239a.409.409,0,0,0,.161-.04l-.2.238h-.242c0,.239,0,.477.242.477a24.942,24.942,0,0,0-2.741,3.417ZM58.195,14.9c0,.079,0,.119.04.159C58.114,15.019,58.034,15.06,58.195,14.9Zm-48.24-.238c.04-.04.08-.119.121-.159,0,.113.02.225-.025.225C10.032,14.728,10,14.709,9.955,14.662Zm42.961-.477c0,.238.483,0,.241.238-.241-.238,0,0-.483.239C52.673,14.423,52.916,14.423,52.916,14.185Zm-42.76.2c-.04.04-.04.079-.08.119C10.076,14.423,10.116,14.344,10.156,14.384Zm42.074-.239c0-.159-.121-.238-.2-.318l-.081.079c0-.238-.524-.238-.766-.477,0-.238.242-.476.484-.278l-.484-.476a.519.519,0,0,1,.676.273c.143.228.2.456.332.2a1.326,1.326,0,0,1-.081.556l.6.2c-.171.169-.221.337-.322.337C52.351,14.244,52.3,14.215,52.23,14.145Zm-32-.328v.328A.715.715,0,0,1,20.231,13.817Zm0-.149h.242a.223.223,0,0,0-.242.149Zm-.04-.239c0,.12-.04.2-.121.2Zm.524-.993a.236.236,0,0,0,.242-.238h.2c.242,0,.081-.2.2-.4.04,0,.04-.04.08-.079.525,0,.283-.517.525-.517,0,.477-.242.755,0,1.232-.484.238-.766.754-1.25.993Zm1.008-.477c0-.12-.121-.12-.2-.12C21.48,11.96,21.36,12.119,21.722,11.96Zm29.46.755v.238C50.94,12.954,50.94,12.715,51.182,12.715Zm7.738-.755c.241,0,.483,0,.483-.238-.524.238-.524.238-.766.238v-.238h.242c0-.517-.242-.517-.242-.755,0,0,0,.238-.241,0-.242,0,0,.238,0,.238-.242-.238-.242,0-.484,0,.524-.278-.483-.278-.483-.755h-.242c0-.239,0-.477-.241-.477-.139-.273-.041-.234.069-.2.083.03.172.059.172-.043-1.249,0-1.491-.993-2.256-1.47-.242-.238.241,0,0-.477-.242,0,0,.477-.242.239-.766,0-.283-.994,0-1.51,0-.239-.242,0,0-.239a.985.985,0,0,1,1.249.755c-.139-.273-.2-.234-.268-.2-.053.03-.112.058-.215-.043-.161.159,0,.318.04.477,1.935.04,1.935,1.749,3.426,2.463v.477H59.4c0,.477.242.477.242.715.04-.079.121-.12.241,0l.242.239a.234.234,0,0,1-.081.2l.081.079.766.755v.079l-1.491.437A1.757,1.757,0,0,0,58.92,11.96Zm1.007-.517Zm-.282-.477H59.4C59.524,11.085,59.565,11.046,59.646,10.967ZM55.414,7.549c.161,0,.121-.079.08-.159C55.494,7.43,55.494,7.47,55.414,7.549ZM49.651,12.2c0-.239.483,0,.241-.239.242.239.524.239,1.008.239,0,0-.242,0-.242.476C50.658,12.437,49.651,12.437,49.651,12.2Zm17.974,0c.282,0,.282-.477.766-.239.282,0,0,.239.241.239a1.492,1.492,0,0,1-1.007.238Zm1.531,0H69.2a.513.513,0,0,0,.042.218C69.156,12.39,69.156,12.331,69.156,12.2Zm-8.221.079.08-.04a.228.228,0,0,0-.078.073S60.935,12.3,60.935,12.278Zm.241-.079-.161.04C61.056,12.2,61.1,12.2,61.177,12.2ZM22.488,11.2v-.238A20.934,20.934,0,0,1,27,8.5s.483,0,.242-.239c1.249,0,1.49-.755,2.74-.755v.477c.241,0,0-.239,0-.477a.223.223,0,0,0,.272.043c.087-.039.107-.077-.031.2.242,0,0-.477.242-.239,0-.239-.483,0-.242-.239.524-.238,1.774-.477,2.015,0,.242,0,.242-.238.484-.238.483,0,0,.238.241.238.484,0,.242,0,.242-.238a2.187,2.187,0,0,1,1.732,0c0-.239.524-.239.766-.239s0,0,0-.239v-.04h.766c0,.239-.242.517-.242.755a.236.236,0,0,1,.242.239h-.766c-1.209,0-2.458.477-3.224.239-.725.517-2.217.278-2.983.755-.241,0-.241,0-.241-.239,0,.517-.766.517-1.008.755-2.5.476-3.99,1.947-6,2.94C22.246,11.682,22.488,11.444,22.488,11.2Zm13.46-4.172c.161,0,.121-.119,0-.158Zm12.977,4.649c-.242-.238,0-.477-.242-.477,0-.477.483-.238.242-.477,0,0-.242,0,0-.239,0,0,0,.477.241.239v.238c.524,0,.524.238.766.238v.477c-.242,0,.041.239-.242.239S49.167,11.682,48.926,11.682Zm-1.693-1.431.242-.239a.774.774,0,0,1-.444-.2c-.2-.12-.322-.159-.322-.319-.242,0-.242.477-.484.238,0,0-.241,0,0-.238h.242c0-.238-.242-.238-.242-.476.283,0,.525.476,1.008.238a.562.562,0,0,0,.2.437c.2.078.239.346.656.506.036-.028.073-.021.109.05.241-.12.241-.06.241,0s0,.119.242,0c-.283.238-.283.238.041.517-.484,0-.484,0-.484.239A3.789,3.789,0,0,1,47.233,10.251Zm.725.477c0-.239.242-.239.242-.477a.312.312,0,0,1-.092-.034C47.951,10.3,47.8,10.573,47.958,10.728ZM44.17,9.02a.141.141,0,0,0,.08-.04.3.3,0,0,1-.08-.2V9.02c-.725,0-1.249,0-1.733-.755a.919.919,0,0,1-.644.04c.685-.04,1.37-.477,1.129,0,.282-.238.765-.238.765,0a.235.235,0,0,1,.242-.238c.242.238,1.007.715,1.249.477V9.02h-.242c0,.238.242.238.242,0,0,.238,0,.238.242.238-.242,0-.242,0-.242.238C44.653,9.5,44.17,9.258,44.17,9.02Zm.241.238a.238.238,0,0,0-.121-.238C44.291,9.1,44.25,9.258,44.411,9.258ZM41.188,7.549c.242,0,.242.239.483.239-.241.2-.04.239,0,.437a.566.566,0,0,0-.483.079Zm.483.715v-.04c.041,0,.081.04.121.04Zm-2.176-.238c0-.477.242-.239.484-.239V7.549c-.524-.238-1.008,0-.766.239-.242-.239-1.008,0-1.249-.239,0,.239-.524,0-.766,0-.242-.517,0-.517-.242-.755h.484v.477c.524,0,.524,0,.765-.238a8.086,8.086,0,0,0,2.5.238v.477c.241,0,0-.477.483-.239,0,.278-.524.278-.2.755C40.261,8.265,40.261,7.788,39.495,8.026Zm13.662-.994c.141.119.141.179.106.179S53.157,7.152,53.157,7.033Zm0,0c.188,0,.251.106.188.106A.371.371,0,0,1,53.157,7.033Zm.242.04V6.834c-.242,0-.483,0-.483.239-2.5-1.231-4.514-2.94-7.255-3.7V2.383s0,.477-.241.238c0-.238,0-.238-.242-.238a.236.236,0,0,1,.242-.238c0-.238-.242,0-.242,0-.242,0,0,.476-.242.238,0-.516,0-.516.242-.754a.65.65,0,0,1-.282.158.525.525,0,0,0-.121-.278c.041,0,.121,0,.121-.079,0,.014,0,.027,0,.039.765-.277,1.491.477,2.256.477v.238c.242,0,0-.238.242-.238,1.975.953,3.466,1.947,5.481,2.94,0,0,.242,0,0,.239a.4.4,0,0,1,.518.119c.126.12.247.238.489.12a4.2,4.2,0,0,1-.241,1.708ZM45.177,1.629c0-.238,0-.238-.281-.159C44.9,1.629,44.952,1.629,45.177,1.629ZM44.9,1.391h0c.04.04,0,.04,0,.04Z" transform="translate(-7377.016 -8852.971)"/><text class="b" transform="translate(-7360.263 -8811.732) rotate(-14)"><tspan x="0" y="0">已过期</tspan></text></g></svg>