<svg xmlns="http://www.w3.org/2000/svg" width="20" height="20" viewBox="0 0 20 20"><defs><style>.a{fill:none;}.b,.c{fill:#fff;}.b{stroke:#fff;stroke-width:0.1px;}</style></defs><g transform="translate(-21 -495)"><rect class="a" width="20" height="20" transform="translate(21 495)"/><g transform="translate(0.08 -0.218)"><path class="b" d="M42.9,108.249a.51.51,0,0,1-.51-.51v-1.247a2.04,2.04,0,0,0-2.088-1.984h-5.2a2.039,2.039,0,0,0-2.088,1.984v1.247a.51.51,0,0,1-1.021,0v-1.247a3.061,3.061,0,0,1,3.108-3h5.2a3.061,3.061,0,0,1,3.108,3v1.247A.51.51,0,0,1,42.9,108.249Zm-5.2-6.238A3.007,3.007,0,1,1,40.815,99,3.061,3.061,0,0,1,37.707,102.011Zm0-4.99A1.987,1.987,0,1,0,39.794,99,2.04,2.04,0,0,0,37.707,97.021Z" transform="translate(-8.735 403.093)"/><path class="c" d="M46.455,108.246a.51.51,0,0,1-.51-.51v-1.247a2.006,2.006,0,0,0-1.561-1.919.511.511,0,0,1,.246-.992,3.026,3.026,0,0,1,2.337,2.909v1.249a.51.51,0,0,1-.51.51Zm-4.547-6.313a.511.511,0,0,1-.121-1.006,1.963,1.963,0,0,0,0-3.844.51.51,0,1,1,.244-.99,2.982,2.982,0,0,1,0,5.826A.524.524,0,0,1,41.907,101.933Z" transform="translate(-8.389 403.096)"/></g></g></svg>