<svg xmlns="http://www.w3.org/2000/svg" width="16" height="16" viewBox="0 0 16 16"><defs><style>.a{fill:#004b8b;}.b{fill:#fef4f2;}</style></defs><rect class="a" width="16" height="16" rx="8"/><path class="b" d="M4,10a.406.406,0,0,1-.3-.132L.781,6.157a1.006,1.006,0,0,1-.06-.088L.714,6.058.708,6.046A3.717,3.717,0,0,1,0,3.857,3.935,3.935,0,0,1,4,0,3.936,3.936,0,0,1,8,3.857a3.743,3.743,0,0,1-.715,2.2s-.03.052-.066.1l-2.906,3.7A.419.419,0,0,1,4,10ZM4,2.481A1.405,1.405,0,0,0,2.57,3.857,1.406,1.406,0,0,0,4,5.236,1.406,1.406,0,0,0,5.428,3.857,1.405,1.405,0,0,0,4,2.481Z" transform="translate(4 3)"/></svg>