<svg xmlns="http://www.w3.org/2000/svg" width="18" height="18" viewBox="0 0 18 18"><defs><style>.a{fill:#fff;}</style></defs><path class="a" d="M63.028,74.8a.692.692,0,1,1,0,1.385H60.72a2.561,2.561,0,0,1-2.538-2.538V71.336a.692.692,0,1,1,1.385,0v2.308A1.143,1.143,0,0,0,60.72,74.8ZM74.8,71.336a.692.692,0,1,1,1.385,0v2.308a2.561,2.561,0,0,1-2.538,2.538H71.336a.692.692,0,1,1,0-1.385h2.308A1.143,1.143,0,0,0,74.8,73.643ZM71.336,59.567a.692.692,0,1,1,0-1.385h2.308a2.561,2.561,0,0,1,2.538,2.538V63.49a.692.692,0,1,1-1.385,0V60.72a1.143,1.143,0,0,0-1.154-1.154ZM59.567,63.028a.692.692,0,1,1-1.385,0V60.72a2.561,2.561,0,0,1,2.538-2.538h2.308a.692.692,0,1,1,0,1.385H60.72a1.143,1.143,0,0,0-1.154,1.154Zm3,4.846a.692.692,0,1,1,0-1.385H71.8a.692.692,0,0,1,0,1.385H62.567Z" transform="translate(-58.182 -58.182)"/></svg>