<?xml version="1.0" encoding="UTF-8"?>
<svg width="18px" height="18px" viewBox="0 0 18 18" version="1.1" xmlns="http://www.w3.org/2000/svg" xmlns:xlink="http://www.w3.org/1999/xlink">
    <title>搜索</title>
    <g id="页面-1" stroke="none" stroke-width="1" fill="none" fill-rule="evenodd">
        <g id="首页/景点" transform="translate(-334.000000, -109.000000)" fill-rule="nonzero">
            <g id="编组-3" transform="translate(74.000000, 101.000000)">
                <g id="搜索" transform="translate(260.000000, 8.000000)">
                    <rect id="矩形" fill="#000000" opacity="0" x="0" y="0" width="18" height="18"></rect>
                    <path d="M8.24999414,1.87500586 C11.770875,1.87500586 14.625,4.72913086 14.625,8.24999414 C14.625,9.76311914 14.0977441,11.15325 13.2172559,12.2463809 C13.2899252,12.2603524 13.3566997,12.2958928 13.408875,12.3483691 L15.7953691,14.7348809 C15.9417617,14.8813163 15.9417617,15.1186896 15.7953691,15.265125 L15.265125,15.7953691 C15.1186896,15.9417617 14.8813163,15.9417617 14.7348809,15.7953691 L12.3483691,13.408875 C12.2958582,13.3566178 12.2600913,13.2899122 12.245625,13.2172559 C11.1143578,14.1304041 9.70381658,14.6273672 8.24999414,14.625 C4.72913086,14.625 1.87500586,11.770875 1.87500586,8.24999414 C1.87500586,4.72911328 4.72913086,1.87500586 8.24999414,1.87500586 L8.24999414,1.87500586 Z M8.24999414,3.375 C5.5575,3.375 3.375,5.5575 3.375,8.24999414 C3.375,10.9424883 5.5575,13.1250059 8.24999414,13.1250059 C10.9424883,13.1250059 13.1250059,10.9425059 13.1250059,8.24999414 C13.1250059,5.55748242 10.9425059,3.375 8.24999414,3.375 Z" id="形状" fill="#FFFFFF"></path>
                </g>
            </g>
        </g>
    </g>
</svg>