<svg xmlns="http://www.w3.org/2000/svg" width="18" height="18" viewBox="0 0 18 18"><defs><style>.a{opacity:0;}.b{fill:#004b8b;}</style></defs><rect class="a" width="18" height="18"/><path class="b" d="M13.125,14.03a.375.375,0,0,1-.265-.109l-2.387-2.387a.388.388,0,0,1-.1-.193,6.342,6.342,0,0,1-3.979,1.408H6.375a6.377,6.377,0,1,1,4.968-2.38.38.38,0,0,1,.193.106l2.383,2.384a.37.37,0,0,1,.109.268.365.365,0,0,1-.109.262l-.529.532A.371.371,0,0,1,13.125,14.03ZM6.375,1.5a4.875,4.875,0,1,0,4.876,4.876A4.88,4.88,0,0,0,6.375,1.5Z" transform="translate(1.875 1.875)"/></svg>