<svg xmlns="http://www.w3.org/2000/svg" width="20" height="20" viewBox="0 0 20 20"><defs><style>.a{fill:none;}.b{fill:#fff;}</style></defs><g transform="translate(-136 -495)"><rect class="a" width="20" height="20" transform="translate(136 495)"/><g transform="translate(67.09 412.667)"><path class="b" d="M85.625,305.374H73.063a1.153,1.153,0,0,0-1.147,1.27l.846,8.3a1.153,1.153,0,0,0,1.147,1.036H84.78a1.153,1.153,0,0,0,1.147-1.037l.845-8.3a1.153,1.153,0,0,0-1.147-1.27Zm-12.562,1.153H85.625l-.845,8.3H73.908l-.845-8.3Z" transform="translate(0 -216.324)"/><path class="b" d="M318.986,85.333A1.73,1.73,0,0,1,320.715,87v3.924a.577.577,0,0,1-1.151.043l0-.043V87.063a.577.577,0,0,0-.533-.575l-.043,0h-3.229a.577.577,0,0,0-.575.534l0,.043v3.859a.577.577,0,0,1-1.152.043l0-.043V87.063a1.73,1.73,0,0,1,1.665-1.728h3.294Z" transform="translate(-238.027)"/><path class="b" d="M330.609,733.867v.577a.577.577,0,0,1-.577.577h-5.19a.577.577,0,0,1-.577-.577v-.577h6.343Z" transform="translate(-248.094 -637.578)"/></g></g></svg>