<?xml version="1.0" encoding="UTF-8"?><svg version="1.1" width="46px" height="46px" viewBox="0 0 46.0 46.0" xmlns="http://www.w3.org/2000/svg" xmlns:xlink="http://www.w3.org/1999/xlink"><defs><clipPath id="i0"><path d="M375,0 L375,812 L0,812 L0,0 L375,0 Z"></path></clipPath><clipPath id="i1"><path d="M23,0 C35.6814737,0 46,10.3185263 46,23 C46,35.6814737 35.6814737,46 23,46 C10.3185263,46 0,35.6814737 0,23 C0,10.3185263 10.3185263,0 23,0 Z M23,1.54463158 C11.1852632,1.54463158 1.54463158,11.1901053 1.54463158,23.0048421 C1.54463158,34.8147368 11.1852632,44.4602105 23,44.4602105 C34.8147368,44.4602105 44.4602105,34.8147368 44.4602105,23 C44.4602105,11.1416842 34.8147368,1.54463158 23,1.54463158 Z M23,3.71389473 C33.6090526,3.71389473 42.2376842,12.3473684 42.2861052,23 C42.2861052,33.6574737 33.6574737,42.2909473 23,42.2909473 C12.3473684,42.2909473 3.71389473,33.6574737 3.71389473,23 C3.71389473,12.3473684 12.3425263,3.71389473 23,3.71389473 Z M23.048421,4.67747368 C12.8751579,4.67747368 4.62905263,12.923579 4.62905263,23.0968421 C4.62905263,33.2701052 12.8751579,41.5162105 23.048421,41.5162105 C29.4109474,41.5162105 35.008421,38.2381052 38.3301052,33.3233684 L37.2696842,33.2265263 L36.4029474,33.8995789 L36.2092632,32.8391579 L35.2941052,32.2629474 L36.2576842,31.6818947 L36.5482105,30.6214737 L37.3181052,31.2945263 L38.5237894,31.3429473 L38.0444211,32.3549474 L38.3833684,33.3185263 C40.3105263,30.3793684 41.4677895,26.8591579 41.4677895,23.0968421 C41.4677895,12.923579 33.2216842,4.67747368 23.048421,4.67747368 Z M22.4237894,37.4730526 L23.3873684,38.0008421 L24.4477894,37.7103158 L24.3073684,38.7755789 L24.8835789,39.6423158 L23.8231579,39.7875789 L23.1936842,40.6107368 L22.7143158,39.6471579 L21.6538947,39.2597895 L22.4237894,38.5334736 L22.4237894,37.4730526 Z M15.5237894,35.7298947 L16.2985263,36.5046316 L17.3541052,36.4997895 L16.8747368,37.4633684 L17.2136842,38.5237894 L16.1532632,38.3349473 L15.2865263,38.9595789 L15.0928421,37.8991579 L14.2261053,37.2212631 L15.1896842,36.7418947 L15.5237894,35.7298947 Z M31.1976842,35.8267368 L31.4397894,36.8387368 L32.4033684,37.3713684 L31.4397894,37.904 L31.1976842,38.916 L30.3793684,38.2429474 L29.2705263,38.3397894 L29.7063157,37.3713684 L29.2705263,36.4077895 L30.3793684,36.5046316 L31.1976842,35.8267368 Z M33.996421,25.0772631 L34.7663158,25.2225263 C33.6574737,30.82 28.7378947,34.916421 23,34.916421 C20.2448421,34.9115789 17.572,33.9576842 15.4317894,32.2145263 L15.9111579,31.6334736 C17.9061053,33.2846315 20.4094737,34.1901053 23,34.1901053 C28.3505263,34.1901053 32.9795789,30.3793684 33.996421,25.0772631 Z M23,11.0448421 C25.7551579,11.0496842 28.428,12.0035789 30.5682105,13.7467368 L30.084,14.3762105 C28.108421,12.7347368 25.6002105,11.8195789 22.9951579,11.8195789 C17.5962105,11.8195789 12.9671579,15.6254737 12.0035789,20.884 L11.2336842,20.7387368 C12.3425263,15.1412631 17.2621052,11.0448421 23,11.0448421 Z M11.5242105,12.5894737 L11.6694737,13.6498947 L12.5362105,14.2696842 L11.5242105,14.7538948 L11.1368421,15.7658947 L10.3669473,14.996 L9.30652629,15.0444211 L9.83915786,14.0808421 L9.54863157,13.0688421 L10.6090526,13.2141053 L11.5242105,12.5894737 Z M14.996,7.91684207 L15.8627368,8.58989472 L16.9715789,8.49305262 L16.5357895,9.45663157 L16.9715789,10.4202105 L15.8627368,10.3233684 L14.996,10.9964211 L14.7538948,9.94084212 L13.7903158,9.41305265 L14.7538948,8.88042102 L14.996,7.91684207 Z M31.4301052,7.3793684 L31.6237894,8.43978944 L32.5437895,9.11284209 L31.5802105,9.59705265 L31.2412631,10.6090526 L30.4713684,9.83915786 L29.3625263,9.83431576 L29.8418947,8.87073682 L29.5029473,7.81031577 L30.5633684,8.00399997 L31.4301052,7.3793684 Z M23.0435789,5.68947368 L23.5762105,6.65305263 L24.6366315,7.03557892 L23.8667368,7.76189475 L23.8667368,8.8223158 L22.8547368,8.29452632 L21.7943158,8.58505262 L21.9831579,7.51978947 L21.3101052,6.65305263 L22.4189473,6.50778945 L23.0435789,5.68947368 Z"></path></clipPath></defs><g transform="translate(-301.0 -165.0)"><g clip-path="url(#i0)"><g transform="translate(16.0 154.0)"><g transform="translate(285.0 11.0)"><g clip-path="url(#i1)"><polygon points="0,0 46,0 46,46 0,46 0,0" stroke="none" fill="#FDFEDD"></polygon></g><g transform="translate(7.033341422463337 19.505017380070406) rotate(-14.999999999999998)"><g transform=""><text transform="translate(0.0 11.0)" font-family="PingFangSC-Regular, PingFang SC" font-size="10.0" font-weight="normal" fill="#FFFFFF" text-anchor="left">已领取</text></g></g></g></g></g></g></svg>