<svg xmlns="http://www.w3.org/2000/svg" xmlns:xlink="http://www.w3.org/1999/xlink" width="72" height="72" viewBox="0 0 72 72"><defs><style>.a,.b{fill:#d9e8f3;}.a{stroke:#0e4a86;stroke-width:2px;}.c{clip-path:url(#a);}.d{fill:#a3bbce;}</style><clipPath id="a"><circle class="a" cx="36" cy="36" r="36"/></clipPath></defs><g transform="translate(-34 -52)"><circle class="b" cx="36" cy="36" r="36" transform="translate(34 52)"/><g class="c" transform="translate(34 52)"><path class="d" d="M754.229-58.15c-.012-.015-.021-.033-.035-.048-.052-.056-.111-.106-.163-.161-.285-.3-.577-.585-.88-.863-.121-.112-.245-.218-.368-.327q-.383-.335-.783-.651c-.124-.1-.245-.2-.372-.292-.336-.253-.682-.494-1.034-.727-.124-.081-.248-.161-.373-.239-.375-.236-.757-.463-1.149-.675-.074-.04-.15-.077-.225-.116q-.568-.3-1.157-.56c-.074-.033-.148-.069-.223-.1-.184-.079-.37-.153-.557-.227-.01,0-.018-.012-.028-.016-.054-.022-.109-.038-.163-.059q-.288-.111-.582-.213l-.2-.071c-.059-.02-.119-.038-.179-.058-.249-.082-.5-.157-.755-.229-.08-.023-.159-.047-.239-.069-.1-.028-.206-.057-.31-.083l-.015,0c-.16-.04-.321-.075-.482-.111l-.21-.049c-.29-.063-.584-.117-.879-.167l-.014,0h-.007a.623.623,0,0,0-.1-.024l-.142-.019-.185-.026-.188-.026a15.93,15.93,0,0,0,8.609-10.77,2.217,2.217,0,0,0,.625.1c1.647,0,2.937-1.7,2.937-3.869a5.068,5.068,0,0,0-.216-1.482V-81.69c0-.491-.024-1-.076-1.574a3.888,3.888,0,0,0,1.708-3.31,4.168,4.168,0,0,0-.783-2.469,5.253,5.253,0,0,0,.506-2.247,5.2,5.2,0,0,0-2.384-4.4,7.45,7.45,0,0,0,.282-2.036,7.56,7.56,0,0,0-7.551-7.551,7.57,7.57,0,0,0-3.028.634,10.181,10.181,0,0,0-7.993-3.948,11.175,11.175,0,0,0-6.117,2.063,9.173,9.173,0,0,1-5.141,1.775c-1.74,0-3.566-2.311-4.124-3.2a1.356,1.356,0,0,0-1.24-.632,1.342,1.342,0,0,0-1.136.806c-.108.251-2.5,5.935.337,10.9a5.263,5.263,0,0,0-3,4.737,5.231,5.231,0,0,0,.889,2.914,4.088,4.088,0,0,0-.941,2.655,3.753,3.753,0,0,0,2.22,3.567c-.036.471-.053.9-.053,1.318v1.306a5.06,5.06,0,0,0-.217,1.482c0,2.17,1.29,3.869,2.937,3.869a2.2,2.2,0,0,0,.625-.1,15.931,15.931,0,0,0,8.614,10.772c-.155.022-.309.041-.463.066l-.062.007c-.005,0-.009,0-.014,0-.034.005-.068.014-.1.019-.294.05-.586.1-.875.167-.073.015-.146.034-.219.05-.134.03-.268.06-.4.093l-.057.013c-.114.028-.226.06-.339.09-.083.022-.166.047-.25.071q-.376.107-.746.227c-.054.017-.108.034-.161.052s-.123.044-.184.065q-.314.109-.622.227c-.052.02-.105.036-.158.057-.009,0-.017.011-.027.015-.182.072-.364.143-.543.221-.064.028-.126.058-.19.086q-.6.267-1.188.573c-.074.038-.149.075-.223.114-.4.214-.784.444-1.164.683q-.18.113-.358.229c-.358.237-.711.481-1.053.739-.12.089-.235.184-.352.277q-.413.326-.809.672c-.113.1-.226.195-.337.3-.314.287-.616.587-.911.893-.042.043-.088.082-.128.126-.013.012-.024.025-.036.038s-.018.025-.027.037a20.129,20.129,0,0,0-5.473,13.809v14.906a.672.672,0,0,0,.672.672h47.309a.672.672,0,0,0,.672-.672V-44.343A20.13,20.13,0,0,0,754.229-58.15Z" transform="translate(-699.374 121.894)"/></g></g></svg>