<svg xmlns="http://www.w3.org/2000/svg" width="20" height="20" viewBox="0 0 20 20"><defs><style>.a{opacity:0;}.b{fill:#ff4d94;}.c{fill:#fff;}</style></defs><rect class="a" width="20" height="20"/><path class="b" d="M7.8,0a7.8,7.8,0,1,0,7.8,7.8A7.8,7.8,0,0,0,7.8,0Z" transform="translate(2.197 2.061)"/><path class="c" d="M4.873,11.223H2.938V9.756H0V7.8H2.938V7.68a3.9,3.9,0,1,1,1.933,0V7.8H7.808V9.756H4.873v1.466ZM3.9,1.931A1.955,1.955,0,1,0,5.281,2.5,1.945,1.945,0,0,0,3.9,1.931Z" transform="translate(6.094 4.451)"/></svg>